<?xml version="1.0" encoding="UTF-8" standalone="no"?>
<svg width="117px" height="70px" viewBox="0 0 117 70" version="1.1" xmlns="http://www.w3.org/2000/svg" xmlns:xlink="http://www.w3.org/1999/xlink">
    <!-- Generator: Sketch 3.7.2 (28276) - http://www.bohemiancoding.com/sketch -->
    <title>dpblack</title>
    <desc>Created with Sketch.</desc>
    <defs></defs>
    <g id="Page-1" stroke="none" stroke-width="1" fill="none" fill-rule="evenodd">
        <g id="dpblack" fill="#000000">
            <path d="M30.408,69.69 C20.608,69.69 19.432,69.391 14.732,69.391 C11.032,69.391 2.183,69.59 0.183,69.59 L0.183,68.51 L3.683,67.91 C8.583,67.01 9.483,64.609 9.483,52.81 L9.483,18.19 C9.483,6.39 8.583,3.698 3.683,2.797 L0.183,2.197 L0.183,0.991 C2.183,0.991 8.932,1.191 12.732,1.191 C16.732,1.191 21.808,0.991 26.408,0.991 C50.808,0.991 66.009,13.565 66.009,35.865 C66.009,58.466 51.508,69.69 30.408,69.69 L30.408,69.69 Z M25.408,3.299 C23.008,3.299 21.008,3.499 19.608,3.799 L19.608,55.11 C19.608,65.01 21.908,67.61 31.808,67.61 C45.208,67.61 54.508,57.69 54.508,36.391 C54.508,14.791 43.809,3.299 25.408,3.299 L25.408,3.299 Z" id="Shape"></path>
            <path d="M88.248,40.269 L84.23,40.269 L83.845,38.253 L90.115,37.95 C99.062,37.138 106.058,33.338 106.058,20.901 C106.058,9.002 100.158,3.101 91.257,3.101 C88.257,3.101 87.558,3.401 85.359,3.901 L85.359,52.901 C85.359,65.401 86.459,66.901 92.859,68.001 L96.459,68.601 L96.459,69.601 C94.559,69.601 85.025,69.402 81.324,69.402 C77.625,69.402 68.099,69.601 66,69.601 L66,68.601 L69.5,68.001 C74.4,67.101 75.301,64.7 75.301,52.901 L75.301,17.701 C75.301,5.901 74.401,3.501 69.5,2.601 L66,2 L66,1 C68.1,1 77.824,1.2 81.625,1.2 C85.324,1.2 88.459,1.1 93.059,1.1 C107.959,1.1 116.78,7.4 116.78,20.299 C116.779,37.323 100.121,40.31 88.248,40.269 L88.248,40.269 Z" id="Shape"></path>
        </g>
    </g>
</svg>