<?xml version="1.0" encoding="UTF-8" standalone="no"?>
<svg width="270px" height="236px" viewBox="0 0 270 236" version="1.1" xmlns="http://www.w3.org/2000/svg" xmlns:xlink="http://www.w3.org/1999/xlink">
    <title>ebt-logo-sm</title>
    <g id="Page-1" stroke="none" stroke-width="1" fill="none" fill-rule="evenodd">
        <g id="ebt-logo-sm" fill="#231F20">
            <path d="M39.0039491,28.9429512 C39.0039491,14.6851344 39.0039491,12.0586945 38.8262396,9.05704882 C38.6682756,5.86780033 37.9278192,4.36697751 34.9857394,3.70543061 C33.8394811,3.4973913 32.6752601,3.40477265 31.5105309,3.42896325 C30.5232558,3.42896325 30,3.24136039 30,2.58968733 C30,1.93801426 30.6219833,1.74053758 31.9745502,1.74053758 C36.6937253,1.74053758 42.3113208,2.02687877 44.8091268,2.02687877 C47.6623519,2.02687877 65.3938131,2.02687877 67.0820535,1.93801426 C68.368589,1.82339271 69.6475413,1.63548478 70.912681,1.3752057 C71.3741134,1.20695239 71.8499966,1.08135829 72.3343572,1 C72.778631,1 72.8674857,1.3752057 72.8674857,1.83927592 C72.8674857,2.50082282 72.4232119,3.62643993 72.1566477,7.94130554 C72.0677929,8.8793198 71.8900834,13.0065826 71.7123738,14.1321997 C71.7149242,14.6411742 71.3302009,15.0686914 70.8238262,15.1195831 C70.2018429,15.1195831 70.0241334,14.6456391 70.0241334,13.8063631 C70.0310828,12.6592511 69.8510119,11.518677 69.4910048,10.4295118 C68.8690215,8.74108612 67.9804739,7.61546901 63.5673541,7.05266045 C62.0568232,6.8650576 52.7073278,6.67745474 50.9104871,6.67745474 C50.4662133,6.67745474 50.2885037,6.96379594 50.2885037,7.66483818 L50.2885037,31.3620406 C50.2885037,32.0235875 50.3773585,32.349424 50.9104871,32.349424 C52.8850373,32.349424 63.1132075,32.349424 65.1667398,32.1618212 C67.220272,31.9742183 68.6419482,31.6878771 69.4416411,30.7597367 C70.0636244,30.0093253 70.4289162,29.5452551 70.8633172,29.5452551 C71.0544208,29.5371894 71.2383083,29.6189292 71.3603772,29.766203 C71.4824461,29.9134769 71.5286615,30.1093521 71.4853006,30.2956665 C71.4853006,30.858475 71.0410268,32.3592979 70.7744625,37.1481075 C70.596753,39.024136 70.4190434,42.7761931 70.4190434,43.4278662 C70.4190434,44.0795392 70.4190434,45.2150302 69.6193506,45.2150302 C69.3915072,45.239976 69.1651648,45.1565381 69.0080155,44.9896699 C68.8508663,44.8228018 68.7811281,44.5918482 68.8196577,44.3658804 C68.7540564,43.2423344 68.6155462,42.124237 68.4050022,41.0186506 C67.9607284,39.1426221 66.7167617,37.7306637 63.4192628,37.355458 C61.7211496,37.1974767 52.9047828,37.0691168 50.7623958,37.0691168 C50.318122,37.0691168 50.2292672,37.4443225 50.2292672,38.0565003 L50.2292672,45.461876 C50.2292672,48.6511245 50.1404125,57.3104772 50.2292672,60.006034 C50.4069767,66.4733955 51.8286529,67.9051015 60.9214568,67.9051015 C63.2415533,67.9051015 66.983326,67.9051015 69.2935498,66.7794844 C71.6037736,65.6538673 72.6799035,63.6889742 73.3018868,59.8678003 C73.4795963,58.8804169 73.6573058,58.4657159 74.2891619,58.4657159 C74.921018,58.4657159 75,59.2161273 75,60.1541415 C74.8507472,63.6452834 74.4648236,67.1222753 73.8448881,70.5611629 C73.2229048,73 72.4232119,73 69.0368583,73 C55.5802984,73 49.6072839,72.4371914 44.3549803,72.4371914 C42.301448,72.3680746 36.6937253,72.6149205 33.1197894,72.6149205 C31.9646775,72.6149205 31.3328214,72.3285793 31.3328214,71.627537 C31.3328214,71.1634668 31.6882405,70.8771256 32.7544976,70.8771256 C33.8350018,70.8773775 34.9118403,70.7514564 35.9631417,70.5019199 C37.7501097,70.1267142 38.1943835,68.0630828 38.5498025,65.3379046 C38.9940763,61.3883708 38.9940763,53.9829951 38.9940763,45.3532639 L38.9940763,28.9429512 L39.0039491,28.9429512 L39.0039491,28.9429512 Z" id="Shape"></path>
            <path d="M98.0920964,48.4725527 C97.6610903,48.4614373 97.3012679,48.795882 97.2850411,49.2226879 L92.4327454,62.6362899 C91.6883413,64.460742 91.2345664,66.3886788 91.0876532,68.3511357 C91.0876532,70.03894 91.8947085,71.2628448 94.6845294,71.2628448 L96.0296217,71.2628448 C97.1056954,71.2628448 97.3747139,71.4503786 97.3747139,72.01298 C97.3747139,72.7631152 96.836677,73 95.850276,73 C92.9707823,73 89.1048876,72.7137642 86.3150666,72.7137642 C85.318702,72.7137642 80.336879,73 75.7037835,73 C74.5380369,73 74,72.8124662 74,72.01298 C74,71.4503786 74.3586913,71.2628448 75.0760738,71.2628448 C76.0087607,71.25054 76.9400796,71.1879361 77.8658947,71.075311 C82.0008079,70.5127096 83.714555,67.3246349 85.5080113,62.6362899 L108.07567,3.75067604 C109.151744,1.02650081 109.689781,0 110.596472,0 C111.503164,0 111.941565,0.838967009 112.848256,2.96106003 C115.010368,8.12317469 129.397873,46.3899405 135.146896,60.6326393 C138.564427,69.0716604 141.125084,70.384397 143.058032,70.8581666 C144.300739,71.1093093 145.565951,71.2349746 146.834253,71.2332342 C147.551636,71.2332342 148,71.322066 148,71.9833694 C148,72.6446728 147.192945,72.9703894 143.865087,72.9703894 C140.537229,72.9703894 134.060859,72.9703894 126.867107,72.7828556 C125.252996,72.6940238 124.166958,72.6940238 124.166958,72.0327204 C124.166958,71.371417 124.52565,71.2825852 125.422378,71.1937534 C125.834772,71.0315032 126.158204,70.7033884 126.312131,70.2911169 C126.466059,69.8788454 126.435997,69.4212127 126.229433,69.0321796 L119.035681,49.1535965 C118.939355,48.7461636 118.56059,48.4668386 118.138952,48.4922931 L98.0920964,48.4922931 L98.0920964,48.4725527 L98.0920964,48.4725527 Z M116.520389,43.9888996 C116.667831,44.025441 116.822387,43.9701206 116.916341,43.847176 C117.010294,43.7242314 117.026512,43.5560841 116.957888,43.4164047 L109.063472,19.8537204 C109.068375,19.5106252 108.903394,19.1886856 108.625973,19 C108.314924,19.1661374 108.114386,19.4922406 108.100975,19.8537204 L100.031559,43.3260108 C99.9440597,43.707674 100.031559,43.9989434 100.381558,43.9989434 L116.520389,43.9989434 L116.520389,43.9888996 L116.520389,43.9888996 Z" id="Shape"></path>
            <path d="M149.678001,71.6133268 C148.264948,70.9666959 148,70.4964188 148,68.4487541 C148,63.3246936 148.353263,57.7499509 148.441579,56.2509428 C148.529895,54.7519347 148.794843,53.8309754 149.501369,53.8309754 C150.207896,53.8309754 150.384528,54.6637577 150.384528,55.4181605 C150.462953,57.0243963 150.729722,58.6159134 151.17937,60.1601209 C153.141945,67.018328 158.35258,69.5558647 163.847788,69.5558647 C171.81584,69.5558647 175.71155,63.8831476 175.71155,58.9452385 C175.71155,54.379632 174.386812,50.0099743 167.027158,44.0531315 L162.954817,40.7024074 C153.210635,32.6978999 149.84482,26.1826031 149.84482,18.6385753 C149.84482,8.40025171 157.989504,1.00318542 170.304658,1.00318542 C174.285806,0.953517042 178.25286,1.4849264 182.080104,2.58057306 C182.874946,2.7667244 183.316526,3.05085013 183.316526,3.69748109 C183.316526,4.90256606 182.963262,7.6164566 182.963262,14.8665613 C182.963262,16.914226 182.698315,17.6588314 181.981975,17.6588314 C181.265635,17.6588314 181.098817,17.1003774 181.098817,15.9834694 C180.935968,13.757403 180.135494,11.6250272 178.792792,9.84047523 C177.468054,8.06713879 174.867643,5.27486873 169.136926,5.27486873 C162.581928,5.27486873 158.597902,9.2820212 158.597902,14.8665613 C158.597902,19.1480421 160.638979,22.4105892 167.98882,28.2694576 L170.471476,30.2289454 C181.098817,38.8898812 184.994527,45.1210523 184.994527,53.9681396 C185.149206,60.4257454 182.016883,66.5219547 176.673211,70.1633059 C172.474456,72.8295531 167.564588,74.1618437 162.59174,73.984307 C157.469421,74.0332942 153.485395,73.3768658 149.678001,71.6133268 L149.678001,71.6133268 L149.678001,71.6133268 Z" id="Shape"></path>
            <path d="M210.113078,7.53741125 L196.887906,7.91097761 C191.745329,8.09776079 189.611603,8.56963408 188.284169,10.6144184 C187.61134,11.6184613 187.103452,12.7236244 186.779744,13.8880393 C186.602753,14.635172 186.337266,15.0087384 185.79646,15.0087384 C185.255654,15.0087384 185,14.5368651 185,13.514473 C185,12.0202075 186.681416,3.51665756 186.86824,2.76952485 C187.133727,1.56034954 187.399213,1 187.930187,1 C188.638151,1 189.523107,1.93391589 191.745329,2.12069907 C194.685399,2.42628059 197.638985,2.58377079 200.594887,2.59257236 L235.79646,2.59257236 C237.838324,2.57951914 239.87627,2.41191831 241.892822,2.09120699 C242.682415,1.88614879 243.483589,1.72857533 244.292035,1.6193337 C244.911504,1.6193337 245,2.17968323 245,3.58547242 C245,5.55161114 244.734513,11.9907155 244.734513,14.3992354 C244.646018,15.3331513 244.469027,15.8935008 243.938053,15.8935008 C243.230088,15.8935008 243.053097,15.4216275 242.954769,14.025669 L242.866273,13.0425997 C242.689282,10.6144184 240.290069,7.99945385 232.394297,7.81267067 L221.214356,7.52758056 L221.214356,45.8672856 C221.214356,54.4593119 221.214356,61.8421628 221.656834,65.8530857 C221.922321,68.4680502 222.453294,70.5226652 225.117994,70.8962316 C226.616234,71.1166378 228.126995,71.2414125 229.641101,71.2697979 C230.624385,71.2697979 231.05703,71.554888 231.05703,72.0169306 C231.05703,72.6755871 230.349066,73 229.375615,73 C223.47591,73 217.930187,72.7149099 215.442478,72.7149099 C213.397247,72.7149099 207.812193,73 204.262537,73 C203.112094,73 202.482793,72.7149099 202.482793,72.0169306 C202.482793,71.554888 202.836775,71.2697979 203.898722,71.2697979 C204.974858,71.2700487 206.047344,71.1446778 207.094395,70.8962316 C208.87414,70.5226652 209.405113,68.4680502 209.6706,65.7547788 C210.113078,61.8225014 210.113078,54.4494812 210.113078,45.8574549 L210.113078,7.51774986 L210.113078,7.53741125 L210.113078,7.53741125 Z" id="Shape"></path>
            <path d="M64.9814421,109.129681 C64.9814421,94.9099861 64.9814421,92.2905687 64.8039822,89.2969487 C64.6265223,86.1162275 63.9166828,84.6194175 60.9787357,83.9596394 C59.8340876,83.7521563 58.6715021,83.6597853 57.508409,83.6839112 C56.5225208,83.6839112 56,83.49681 56,82.8468793 C56,82.1969487 56.6211096,82 57.9717765,82 C62.6843224,82 68.2940267,82.2855756 70.0686256,82.2855756 C74.4262517,82.2855756 77.8965784,82 80.9133965,82 C97.0228107,82 99.862169,91.0793343 99.862169,96.0325936 C99.862169,103.703745 95.6820027,108.282802 90.782138,112.408877 C98.1270056,115.018447 107,121.665465 107,132.605964 C107,142.620804 99.6156969,153 83.2400928,153 C81.1007153,153 73.0065726,152.438696 70.3348154,152.438696 C68.2841678,152.438696 62.6843224,152.724272 59.1252658,152.724272 C57.9717765,152.724272 57.340808,152.438696 57.340808,151.739528 C57.340808,151.276699 57.6957278,150.991123 58.7604871,150.991123 C59.8394735,150.991375 60.9147994,150.86579 61.964624,150.616921 C63.7490818,150.242718 64.1927315,148.184605 64.5476513,145.466713 C64.991301,141.527739 64.991301,134.142164 64.991301,125.535506 L64.991301,109.129681 L64.9814421,109.129681 L64.9814421,109.129681 Z M76.0198807,110.729572 C75.9264184,111.167549 76.203475,111.599403 76.6461233,111.705711 C78.0376642,111.939787 79.4497976,112.034633 80.860835,111.988791 C83.8429423,111.988791 85.8310139,111.617858 87.3220676,110.221981 C89.6580517,108.269704 91,104.931312 91,100.392269 C91,94.1742694 87.500994,86.0137545 79.7872763,86.0137545 C78.7893366,85.9696116 77.7894638,86.0317966 76.805169,86.1992207 C76.1789264,86.384687 76,86.7556195 76,87.7708031 L76,110.729572 L76.0198807,110.729572 L76.0198807,110.729572 Z M87.5072464,118.351272 C85.6714976,116.948412 83.6425121,116.2865 80.2705314,116.098793 C78.705314,116 77.826087,116 76.5217391,116 C76.173913,116 76,116.187707 76,116.661913 L76,138.890326 C76,145.084644 76.2608696,146.67521 79.0531401,147.900243 C81.0828999,148.731736 83.2659466,149.09927 85.4492754,148.977086 C89.3719807,148.977086 96,146.724607 96,136.963864 C95.9613527,131.194355 94.1449275,123.29092 87.5072464,118.351272 L87.5072464,118.351272 L87.5072464,118.351272 Z" id="Shape"></path>
            <path d="M124.726476,128.472553 C124.300778,128.461437 123.945388,128.795882 123.929361,129.222688 L119.136829,142.62642 C118.410717,144.455629 117.972485,146.38692 117.837827,148.351136 C117.837827,150.03894 118.634942,151.262845 121.390402,151.262845 L122.758291,151.262845 C123.821111,151.262845 124.086816,151.450379 124.086816,152.01298 C124.086816,152.763115 123.555406,153 122.581154,153 C119.737126,153 115.918846,152.713764 113.163386,152.713764 C112.179294,152.713764 107.25883,153 102.682799,153 C101.53141,153 101,152.812466 101,152.01298 C101,151.450379 101.354273,151.262845 102.06282,151.262845 C102.98402,151.25054 103.903868,151.187936 104.81828,151.075311 C108.902265,150.51271 110.594904,147.324635 112.366271,142.63629 L134.567404,83.750676 C135.630224,81.0265008 136.161634,80 137.057158,80 C137.952683,80 138.385683,80.838967 139.281208,82.96106 C141.416689,88.1231747 155.626988,126.389941 161.305204,140.632639 C164.680642,149.07166 167.20976,150.384397 169.1189,150.858167 C170.346291,151.109376 171.595927,151.235042 172.848611,151.233234 C173.557158,151.233234 174,151.322066 174,151.983369 C174,152.644673 173.202885,152.970389 169.916015,152.970389 C166.629145,152.970389 160.232542,152.970389 153.127393,152.782856 C151.533163,152.694024 150.460501,152.694024 150.460501,152.03272 C150.460501,151.371417 150.814775,151.282585 151.700458,151.193753 C152.107773,151.031503 152.427222,150.703388 152.579253,150.291117 C152.731285,149.878845 152.701594,149.421213 152.497573,149.03218 L145.392424,129.153597 C145.297285,128.746164 144.923185,128.466839 144.50674,128.492293 L124.726476,128.492293 L124.726476,128.472553 L124.726476,128.472553 Z M142.520389,123.988904 C142.667831,124.025431 142.822387,123.970133 142.916341,123.847237 C143.010294,123.724342 143.026512,123.556263 142.957888,123.416639 L135.063472,99.8533776 C135.068375,99.5104202 134.903394,99.1886095 134.625973,99 C134.314924,99.1660703 134.114386,99.4920425 134.100975,99.8533776 L126.031559,123.316242 C125.94406,123.697752 126.031559,123.988904 126.381558,123.988904 L142.530111,123.988904 L142.520389,123.988904 L142.520389,123.988904 Z" id="Shape"></path>
            <path d="M184.968938,128.629223 C185.107436,125.22016 184.401765,121.829641 182.914543,118.758515 C182.292299,117.28778 170.351131,96.618518 167.230031,91.7818713 C164.997853,88.3073822 162.775551,85.9680245 161.076725,84.9316002 C159.93737,84.2481078 158.657218,83.83291 157.333381,83.7175031 C156.622244,83.7175031 156,83.5299597 156,82.878493 C156,82.2270263 156.622244,82.0296121 157.688949,82.0296121 C159.289007,82.0296121 165.975666,82.3158626 168.918981,82.3158626 C170.785714,82.3158626 174.450043,82.0296121 178.460063,82.0296121 C179.348984,82.0296121 179.793444,82.3125724 179.793444,82.878493 C179.793444,83.4411233 179.1712,83.5299597 177.818065,83.8655637 C177.059291,84.0680883 176.54236,84.7691978 176.573576,85.5534547 C176.725205,86.6738192 177.08711,87.755506 177.640281,88.7416933 C178.88477,91.554845 191.369167,114.158765 192.79144,116.784374 C193.680361,114.533852 204.910392,93.9040734 206.164758,90.9922147 C206.900038,89.4657581 207.323128,87.8080135 207.409247,86.1160851 C207.480808,84.9816468 206.683716,83.9763205 205.562267,83.7865981 C204.762239,83.5990546 203.96221,83.4115112 203.96221,82.8488809 C203.96221,82.2862505 204.40667,82 205.473375,82 C208.436444,82 211.271114,82.2862505 213.848984,82.2862505 C215.824363,82.2862505 221.69124,82 223.390066,82 C224.377756,82 225,82.1875434 225,82.7501738 C225,83.3128041 224.288863,83.7372445 223.311051,83.7372445 C221.926519,83.8124702 220.576485,84.196989 219.360292,84.8625052 C217.483682,85.849576 216.505869,86.9254831 214.550243,89.462255 C211.587174,93.2131239 199.132408,115.254414 197.522474,119.281663 C196.189092,122.657445 196.189092,125.569303 196.189092,128.658835 L196.189092,136.348116 C196.189092,137.848464 196.189092,141.786876 196.455769,145.725288 C196.633553,148.439733 197.443458,150.512582 200.11022,150.887669 C201.58578,151.105302 203.073506,151.230575 204.564701,151.262755 C205.55239,151.262755 205.986974,151.549006 205.986974,152.012929 C205.986974,152.674267 205.275837,153 204.110364,153 C198.490409,153 192.880332,152.713749 190.470369,152.713749 C188.238191,152.713749 182.628113,153 179.32923,153 C178.084741,153 177.353851,152.812457 177.353851,152.012929 C177.353851,151.549006 177.798311,151.262755 178.776124,151.262755 C179.827456,151.258004 180.874736,151.132143 181.897223,150.887669 C183.684941,150.512582 184.48497,148.449604 184.662754,145.725288 C184.92943,141.777005 184.92943,137.828722 184.92943,136.348116 L184.92943,128.629223 L184.968938,128.629223 L184.968938,128.629223 Z" id="Shape"></path>
            <path d="M25.1229105,169.537411 L11.8977384,169.910978 C6.75516224,170.097761 4.62143559,170.569634 3.29400197,172.614418 C2.61757429,173.617745 2.10633982,174.722965 1.77974435,175.888039 C1.6027532,176.635172 1.33726647,177.008738 0.796460177,177.008738 C0.255653884,177.008738 0,176.536865 0,175.514473 C0,174.020208 1.68141593,165.516658 1.86823992,164.769525 C2.13372665,163.56035 2.39921337,163 2.93018682,163 C3.63815143,163 4.52310718,163.933916 6.7453294,164.120699 C9.68539908,164.42628 12.6389855,164.583771 15.5948869,164.592572 L50.7374631,164.592572 C52.7990336,164.582586 54.8568209,164.414976 56.892822,164.091207 C57.6824259,163.886195 58.4835965,163.728622 59.2920354,163.619334 C59.9115044,163.619334 60,164.179683 60,165.585472 C60,167.551611 59.7345133,173.990715 59.7345133,176.399235 C59.6460177,177.333151 59.4690265,177.893501 58.9380531,177.893501 C58.2300885,177.893501 58.0530973,177.421628 57.9547689,176.025669 L57.8662734,175.0426 C57.6892822,172.614418 55.2900688,169.999454 47.394297,169.812671 L36.2143559,169.527581 L36.2143559,207.867286 C36.2143559,216.459312 36.2143559,223.842163 36.6568338,227.853086 C36.9223206,230.46805 37.453294,232.522665 40.1179941,232.896232 C41.6162282,233.116691 43.1269923,233.241466 44.6411013,233.269798 C45.6243854,233.269798 46.0570305,233.554888 46.0570305,234.016931 C46.0570305,234.675587 45.3490659,235 44.3756146,235 C38.4759095,235 32.9301868,234.71491 30.4424779,234.71491 C28.3972468,234.71491 22.8121927,235 19.2625369,235 C18.1120944,235 17.4926254,234.71491 17.4926254,234.016931 C17.4926254,233.554888 17.8466077,233.269798 18.9085546,233.269798 C19.984691,233.270049 21.0571765,233.144678 22.1042281,232.896232 C23.8741396,232.522665 24.4149459,230.46805 24.6804326,227.754779 C25.1229105,223.822501 25.1229105,216.449481 25.1229105,207.857455 L25.1229105,169.51775 L25.1229105,169.537411 L25.1229105,169.537411 Z" id="Shape"></path>
            <path d="M69.9045657,191.243153 C69.9045657,176.989851 69.9045657,174.364243 69.725369,171.363548 C69.5461723,168.175309 68.6501888,166.586125 66.6690697,166.112331 C65.6124515,165.843818 64.5241668,165.717654 63.4335736,165.737245 C62.5375901,165.737245 62,165.549701 62,164.750174 C62,164.187543 62.7167868,164 64.1603158,164 C67.5750086,164 73.2396155,164.286251 75.8379677,164.286251 C78.0878819,164.286251 83.3841401,164 86.7888774,164 C87.953656,164 88.6704428,164.187543 88.6704428,164.750174 C88.6704428,165.500348 88.1328527,165.737245 87.2368692,165.737245 C86.3308184,165.745331 85.4275413,165.837865 84.5389633,166.013624 C82.1098524,166.487418 81.3930656,168.076602 81.2138689,171.363548 C81.0346722,174.32476 81.0346722,176.989851 81.0346722,191.243153 L81.0346722,207.746976 C81.0346722,216.847769 81.0346722,224.250799 81.3930656,228.287919 C81.6618606,230.81482 82.2890491,232.512582 84.986955,232.887669 C86.5038654,233.108972 88.0334522,233.234255 89.5664264,233.262755 C90.5619636,233.262755 91,233.549006 91,234.012929 C91,234.674267 90.2832132,235 89.2976313,235 C83.3244078,235 77.7095778,234.713749 75.2804669,234.713749 C73.2097494,234.713749 67.5550978,235 63.9612084,235 C62.7964298,235 62.1692413,234.713749 62.1692413,234.012929 C62.1692413,233.549006 62.5276347,233.262755 63.602815,233.262755 C64.6923615,233.263007 65.7782117,233.137126 66.838311,232.887669 C68.6302781,232.512582 69.1778235,230.913527 69.4466186,228.199082 C69.8946104,224.250799 69.8946104,216.847769 69.8946104,207.756847 L69.8946104,191.243153 L69.9045657,191.243153 L69.9045657,191.243153 Z" id="Shape"></path>
            <path d="M109.574799,164.439259 C109.84118,162.839421 110.373941,162 111.08429,162 C111.794638,162 112.327399,162.474026 113.491582,164.913285 L137.801287,217.826434 L162.022198,164.251623 C162.643753,162.750541 163.176515,162 163.995389,162 C164.814263,162 165.327292,162.987554 165.593673,164.913285 L173.693619,222.892587 C174.492761,228.817911 175.380697,231.52381 178.05437,232.363231 C179.828536,232.996909 181.695682,233.330652 183.579303,233.350785 C184.378445,233.350785 185,233.439665 185,234.012446 C185,234.762987 183.934477,235 182.681501,235 C180.451796,235 168.168686,234.713609 164.607078,234.437094 C162.55496,234.249459 162.022198,233.972944 162.022198,233.44954 C162.118099,232.949237 162.508977,232.55798 163.008794,232.461986 C163.541555,232.274351 163.807936,231.059659 163.452761,228.432765 L158.105416,187.153003 L157.750241,187.153003 L138.334048,229.637581 C136.28193,234.042073 135.837962,234.891369 135.03882,234.891369 C134.239678,234.891369 133.351743,233.015016 131.92118,230.200487 C129.780268,225.884876 122.745845,211.535714 121.680322,208.90882 C120.88118,206.933712 115.533834,195.083063 112.416193,188.081304 L112.070885,188.081304 L107.433887,225.420725 C107.262141,226.882681 107.173205,228.353198 107.167507,229.825216 C107.167507,231.612689 108.321823,232.45211 109.84118,232.787879 C111.065168,233.089574 112.319893,233.248638 113.580375,233.261905 C114.290724,233.261905 114.912279,233.44954 114.912279,233.923566 C114.912279,234.762987 114.113137,234.91112 112.771367,234.91112 C109.032172,234.91112 105.026595,234.624729 103.418445,234.624729 C101.810295,234.624729 97.498874,234.91112 94.5982842,234.91112 C93.7103485,234.91112 93,234.723485 93,233.923566 C93,233.44954 93.5327614,233.261905 94.4206971,233.261905 C95.3203361,233.277754 96.2184524,233.181552 97.09437,232.975514 C99.5904558,232.412608 100.300804,228.748782 100.744772,225.568858 L109.574799,164.439259 L109.574799,164.439259 Z" id="Shape"></path>
            <path d="M192.982252,190.954452 C192.982252,176.690767 192.982252,174.063246 192.804777,171.060365 C192.627301,167.869804 191.917397,166.368363 188.979185,165.706544 C187.834434,165.498419 186.671743,165.405762 185.508545,165.429963 C184.522568,165.429963 184,165.242283 184,164.590342 C184,163.9384 184.621166,163.740842 185.971954,163.740842 C190.684926,163.740842 196.295136,164.027301 198.789658,164.027301 C201.639132,164.027301 219.347283,164.027301 221.033304,163.9384 C222.318148,163.823732 223.595419,163.635746 224.858896,163.37536 C225.319705,163.206984 225.794968,163.081338 226.278703,163 C226.722393,163 226.811131,163.37536 226.811131,163.839621 C226.811131,164.501441 226.367441,165.627521 226.101227,169.944162 C226.012489,170.882563 225.835013,175.011524 225.657537,176.137605 C225.660084,176.646789 225.275866,177.074482 224.770158,177.125394 C224.148992,177.125394 223.971516,176.651255 223.971516,175.811634 C223.978986,174.66401 223.799138,173.522881 223.439089,172.433393 C222.817923,170.744272 221.930543,169.618192 217.523225,169.055152 C216.01468,168.867472 206.677476,168.679791 204.882997,168.679791 C204.439308,168.679791 204.261832,168.966251 204.261832,169.667581 L204.261832,193.374537 C204.261832,194.036356 204.35057,194.362327 204.882997,194.362327 C206.854952,194.362327 217.079535,194.362327 219.120508,194.174647 C221.161481,193.986967 222.591148,193.700508 223.38979,192.771985 C224.010955,192.021265 224.375767,191.557004 224.809597,191.557004 C225.000449,191.548934 225.184095,191.630709 225.306004,191.778042 C225.427912,191.925377 225.474067,192.121333 225.430762,192.307724 C225.430762,192.870764 224.987073,194.372205 224.720859,199.162985 C224.543383,201.039786 224.365907,204.793387 224.365907,205.445329 C224.365907,206.09727 224.365907,207.233228 223.567266,207.233228 C223.339722,207.258185 223.113677,207.174711 222.956735,207.007775 C222.799792,206.840839 222.730145,206.60979 222.768624,206.383729 C222.724622,205.251051 222.606047,204.122518 222.413672,203.005488 C221.969982,201.128687 220.727651,199.716148 217.434487,199.340787 C215.748466,199.153107 206.93383,199.054328 204.794259,199.054328 C204.35057,199.054328 204.261832,199.429689 204.261832,200.042118 L204.261832,207.450542 C204.261832,210.641103 204.173094,219.30402 204.261832,222.000686 C204.439308,228.470709 205.868975,229.903005 214.939965,229.903005 C217.257011,229.903005 220.993865,229.903005 223.301052,228.776924 C225.608238,227.650844 226.682954,225.685142 227.304119,221.862395 C227.481595,220.874606 227.659071,220.459734 228.290096,220.459734 C228.921122,220.459734 229,221.210454 229,222.148854 C228.850943,225.641433 228.465527,229.119856 227.846407,232.560159 C227.225241,235 226.426599,235 223.044698,235 C209.605828,235 203.640666,234.43696 198.395267,234.43696 C196.344435,234.43696 190.744084,234.723419 187.184706,234.723419 C186.031113,234.723419 185.409947,234.43696 185.409947,233.735629 C185.409947,233.271368 185.764899,232.984909 186.829755,232.984909 C187.908839,232.985161 188.984262,232.859188 190.034181,232.609549 C191.80894,232.234189 192.262489,230.169708 192.617441,227.443408 C193.061131,223.492249 193.061131,216.083825 193.061131,207.450542 L193.061131,190.954452 L192.982252,190.954452 L192.982252,190.954452 Z" id="Shape"></path>
            <path d="M234.677556,233.565999 C233.264877,232.919782 233,232.449805 233,230.40345 C233,225.282665 233.35317,219.711487 233.441462,218.213437 C233.529755,216.715388 233.794632,215.795017 234.500971,215.795017 C235.207311,215.795017 235.383896,216.627267 235.383896,217.381188 C235.4623,218.986397 235.728998,220.576897 236.178527,222.120116 C238.140581,228.973938 243.349835,231.509852 248.843586,231.509852 C256.809525,231.509852 260.704203,225.840762 260.704203,220.90601 C260.704203,216.343323 259.379816,211.976459 252.031924,206.023425 L247.960662,202.674843 C238.219064,194.675454 234.854141,188.164323 234.854141,180.625118 C234.854141,170.393341 242.996665,163.001004 255.308554,163.001004 C259.281697,162.973175 263.237654,163.524019 267.051447,164.63613 C267.846079,164.822162 268.287541,165.106106 268.287541,165.752324 C268.287541,166.956638 267.934371,169.668794 267.934371,176.914263 C267.934371,178.960618 267.669494,179.704748 266.953344,179.704748 C266.237195,179.704748 266.07042,179.146651 266.07042,178.030457 C265.907615,175.805814 265.107353,173.674802 263.765007,171.89139 C262.44062,170.119188 259.840899,167.328703 254.111701,167.328703 C247.558441,167.328703 243.575471,171.333294 243.575471,176.914263 C243.575471,181.193006 245.616007,184.453467 252.963899,190.30859 L255.445898,192.266825 C266.07042,200.912432 269.994528,207.14941 269.994528,215.98105 C270.149167,222.434527 267.017674,228.526839 261.675419,232.165861 C257.477526,234.829835 252.569139,236.161225 247.597682,235.984419 C242.476721,235.984419 238.493751,235.328411 234.677556,233.565999 L234.677556,233.565999 L234.677556,233.565999 Z" id="Shape"></path>
        </g>
    </g>
</svg>