<svg id="Layer_1" data-name="Layer 1" xmlns="http://www.w3.org/2000/svg" viewBox="0 0 714 82.67"><defs><style>.cls-1{fill:#231f20;}</style></defs><title>East+Bay+Times+logo</title><path class="cls-1" d="M19.34,32.77c0-14.44,0-17.1-.18-20.14C19,9.4,18.25,7.88,15.27,7.21a17.66,17.66,0,0,0-3.52-.28c-1,0-1.53-.19-1.53-0.85s0.63-.86,2-0.86c4.78,0,10.47.29,13,.29,2.89,0,20.85,0,22.56-.09a34.41,34.41,0,0,0,3.88-.57,8.14,8.14,0,0,1,1.44-.38c0.45,0,.54.38,0.54,0.85,0,0.67-.45,1.81-0.72,6.18-0.09.95-.27,5.13-0.45,6.27a1,1,0,0,1-.9,1c-0.63,0-.81-0.48-0.81-1.33a10.69,10.69,0,0,0-.54-3.42c-0.63-1.71-1.53-2.85-6-3.42-1.53-.19-11-0.38-12.82-0.38-0.45,0-.63.29-0.63,1v24c0,0.67.09,1,.63,1,2,0,12.36,0,14.44-.19s3.52-.48,4.33-1.42c0.63-.76,1-1.23,1.44-1.23a0.62,0.62,0,0,1,.63.76c0,0.57-.45,2.09-0.72,6.94-0.18,1.9-.36,5.7-0.36,6.36s0,1.81-.81,1.81a0.74,0.74,0,0,1-.81-0.86A26.32,26.32,0,0,0,49.12,45c-0.45-1.9-1.71-3.33-5.05-3.71C42.35,41.13,33.42,41,31.25,41c-0.45,0-.54.38-0.54,1v7.5c0,3.23-.09,12,0,14.73,0.18,6.55,1.62,8,10.83,8,2.35,0,6.14,0,8.48-1.14s3.43-3.13,4.06-7c0.18-1,.36-1.42,1-1.42s0.72,0.76.72,1.71a78.24,78.24,0,0,1-1.17,10.54c-0.63,2.47-1.44,2.47-4.87,2.47-13.63,0-19.68-.57-25-0.57C22.68,76.75,17,77,13.38,77c-1.17,0-1.81-.29-1.81-1,0-.47.36-0.76,1.44-0.76a14.06,14.06,0,0,0,3.25-.38c1.81-.38,2.26-2.47,2.62-5.23,0.45-4,.45-11.5.45-20.24V32.77Z"/><path class="cls-1" d="M79.44,52.24a0.79,0.79,0,0,0-.81.76L73.76,66.59a19.25,19.25,0,0,0-1.35,5.79c0,1.71.81,2.95,3.61,2.95h1.35c1.08,0,1.35.19,1.35,0.76,0,0.76-.54,1-1.53,1-2.89,0-6.77-.29-9.57-0.29-1,0-6,.29-10.65.29-1.17,0-1.71-.19-1.71-1,0-.57.36-0.76,1.08-0.76a25.79,25.79,0,0,0,2.8-.19c4.15-.57,5.87-3.8,7.67-8.55L89.46,6.93c1.08-2.76,1.62-3.8,2.53-3.8s1.35,0.85,2.26,3c2.17,5.23,16.61,44,22.38,58.43,3.43,8.55,6,9.88,7.94,10.36a18.83,18.83,0,0,0,3.79.38c0.72,0,1.17.09,1.17,0.76s-0.81,1-4.15,1-9.84,0-17.06-.19c-1.62-.09-2.71-0.09-2.71-0.76s0.36-.76,1.26-0.85a1.57,1.57,0,0,0,.81-2.19l-7.22-20.14a0.87,0.87,0,0,0-.9-0.67H79.44Zm18.41-4.75a0.4,0.4,0,0,0,.45-0.57L90.18,23.46a1,1,0,0,0-.45-0.85,1,1,0,0,0-.54.85l-8.3,23.37c-0.09.38,0,.67,0.36,0.67H97.85Z"/><path class="cls-1" d="M130.61,75.9c-1.44-.66-1.71-1.14-1.71-3.23,0-5.23.36-10.92,0.45-12.45s0.36-2.47,1.08-2.47,0.9,0.85.9,1.62a21,21,0,0,0,.81,4.84c2,7,7.31,9.59,12.91,9.59,8.12,0,12.09-5.79,12.09-10.83,0-4.66-1.35-9.12-8.85-15.2l-4.15-3.42c-9.93-8.17-13.36-14.82-13.36-22.52,0-10.45,8.3-18,20.85-18a41.65,41.65,0,0,1,12,1.61c0.81,0.19,1.26.48,1.26,1.14,0,1.23-.36,4-0.36,11.4,0,2.09-.27,2.85-1,2.85s-0.9-.57-0.9-1.71a11.88,11.88,0,0,0-2.35-6.27c-1.35-1.81-4-4.66-9.84-4.66-6.68,0-10.74,4.09-10.74,9.79,0,4.37,2.08,7.7,9.57,13.68l2.53,2c10.83,8.84,14.8,15.2,14.8,24.23a19.45,19.45,0,0,1-8.48,16.53,25.07,25.07,0,0,1-14.35,3.9C138.55,78.37,134.49,77.7,130.61,75.9Z"/><path class="cls-1" d="M192.88,10.54l-13.45.38c-5.23.19-7.4,0.67-8.75,2.75A11.53,11.53,0,0,0,169.15,17c-0.18.76-.45,1.14-1,1.14s-0.81-.48-0.81-1.52c0-1.52,1.71-10.17,1.9-10.93,0.27-1.23.54-1.8,1.08-1.8,0.72,0,1.62.95,3.88,1.14a89.62,89.62,0,0,0,9,.48H219A41.14,41.14,0,0,0,225.2,5a20.77,20.77,0,0,1,2.44-.48c0.63,0,.72.57,0.72,2,0,2-.27,8.55-0.27,11-0.09.95-.27,1.52-0.81,1.52-0.72,0-.9-0.48-1-1.9l-0.09-1c-0.18-2.47-2.62-5.13-10.65-5.32l-11.37-.29v39c0,8.74,0,16.25.45,20.33,0.27,2.66.81,4.75,3.52,5.13a36.27,36.27,0,0,0,4.6.38c1,0,1.44.29,1.44,0.76,0,0.67-.72,1-1.71,1-6,0-11.64-.29-14.17-0.29-2.08,0-7.76.29-11.37,0.29-1.17,0-1.81-.29-1.81-1,0-.47.36-0.76,1.44-0.76a14.06,14.06,0,0,0,3.25-.38c1.81-.38,2.35-2.47,2.62-5.23,0.45-4,.45-11.5.45-20.24v-39Z"/><path class="cls-1" d="M261.38,32.77c0-14.44,0-17.1-.18-20.14-0.18-3.23-.9-4.75-3.88-5.42a17.66,17.66,0,0,0-3.52-.28c-1,0-1.53-.19-1.53-0.85s0.63-.86,2-0.86c4.78,0,10.47.29,12.27,0.29,4.42,0,7.94-.29,11-0.29,16.34,0,19.22,9.22,19.22,14.25,0,7.79-4.24,12.44-9.21,16.63C295,38.75,304,45.5,304,56.61c0,10.17-7.49,20.71-24.1,20.71-2.17,0-10.38-.57-13.09-0.57-2.08,0-7.76.29-11.37,0.29-1.17,0-1.81-.29-1.81-1,0-.47.36-0.76,1.44-0.76a14.06,14.06,0,0,0,3.25-.38c1.81-.38,2.26-2.47,2.62-5.23,0.45-4,.45-11.5.45-20.24V32.77Zm10.83,1.61a0.85,0.85,0,0,0,.63,1,21,21,0,0,0,4.24.29c3,0,5-.38,6.5-1.81,2.35-2,3.7-5.42,3.7-10.07,0-6.37-3.52-14.73-11.28-14.73a13.91,13.91,0,0,0-3,.19c-0.63.19-.81,0.57-0.81,1.61V34.38ZM284.13,42c-1.9-1.42-4-2.09-7.49-2.28-1.62-.1-2.53-0.1-3.88-0.1-0.36,0-.54.19-0.54,0.67V62.79c0,6.27.27,7.88,3.16,9.12A15.52,15.52,0,0,0,282,73c4.06,0,10.92-2.28,10.92-12.16C292.88,55,291,47,284.13,42Z"/><path class="cls-1" d="M322,52.24a0.79,0.79,0,0,0-.81.76l-4.87,13.58A19.25,19.25,0,0,0,315,72.38c0,1.71.81,2.95,3.61,2.95H320c1.08,0,1.35.19,1.35,0.76,0,0.76-.54,1-1.53,1-2.89,0-6.77-.29-9.57-0.29-1,0-6,.29-10.65.29-1.17,0-1.71-.19-1.71-1,0-.57.36-0.76,1.08-0.76a25.79,25.79,0,0,0,2.8-.19c4.15-.57,5.87-3.8,7.67-8.55L332,6.93c1.08-2.76,1.62-3.8,2.53-3.8s1.35,0.85,2.26,3c2.17,5.23,16.61,44,22.38,58.43,3.43,8.55,6,9.88,7.94,10.36a18.82,18.82,0,0,0,3.79.38c0.72,0,1.17.09,1.17,0.76s-0.81,1-4.15,1-9.84,0-17.06-.19c-1.62-.09-2.71-0.09-2.71-0.76s0.36-.76,1.26-0.85a1.57,1.57,0,0,0,.81-2.19l-7.22-20.14a0.87,0.87,0,0,0-.9-0.67H322Zm18.41-4.75a0.4,0.4,0,0,0,.45-0.57l-8.12-23.47a1,1,0,0,0-.45-0.85,1,1,0,0,0-.54.85l-8.3,23.37c-0.09.38,0,.67,0.36,0.67h16.61Z"/><path class="cls-1" d="M383.31,52.43a21,21,0,0,0-2.08-10C380.6,40.94,368.51,20,365.35,15.1c-2.26-3.52-4.51-5.89-6.23-6.94a8.86,8.86,0,0,0-3.79-1.23c-0.72,0-1.35-.19-1.35-0.85s0.63-.86,1.71-0.86c1.62,0,8.39.29,11.37,0.29,1.89,0,5.6-.29,9.66-0.29q1.35,0,1.35.86c0,0.57-.63.66-2,1a1.7,1.7,0,0,0-1.26,1.71,9.1,9.1,0,0,0,1.08,3.23c1.26,2.85,13.9,25.75,15.34,28.41,0.9-2.28,12.27-23.18,13.54-26.13a12.9,12.9,0,0,0,1.26-4.94A2.25,2.25,0,0,0,404.16,7c-0.81-.19-1.62-0.38-1.62-0.95s0.45-.86,1.53-0.86c3,0,5.87.29,8.48,0.29,2,0,7.94-.29,9.66-0.29,1,0,1.63.19,1.63,0.76s-0.72,1-1.71,1a9.39,9.39,0,0,0-4,1.14c-1.9,1-2.89,2.09-4.87,4.66-3,3.8-15.61,26.13-17.24,30.21-1.35,3.42-1.35,6.37-1.35,9.5v7.79c0,1.52,0,5.51.27,9.5,0.18,2.75,1,4.85,3.7,5.23a36.25,36.25,0,0,0,4.51.38c1,0,1.44.29,1.44,0.76,0,0.67-.72,1-1.9,1-5.69,0-11.37-.29-13.81-0.29-2.26,0-7.94.29-11.28,0.29-1.26,0-2-.19-2-1,0-.47.45-0.76,1.44-0.76a13.85,13.85,0,0,0,3.16-.38c1.81-.38,2.62-2.47,2.8-5.23,0.27-4,.27-8,0.27-9.5V52.43Z"/><path class="cls-1" d="M462.1,10.54l-13.45.38c-5.23.19-7.4,0.67-8.75,2.75A11.52,11.52,0,0,0,438.36,17c-0.18.76-.45,1.14-1,1.14s-0.81-.48-0.81-1.52c0-1.52,1.71-10.17,1.9-10.93,0.27-1.23.54-1.8,1.08-1.8,0.72,0,1.62.95,3.88,1.14a89.62,89.62,0,0,0,9,.48h35.74A41.12,41.12,0,0,0,494.41,5a20.79,20.79,0,0,1,2.44-.48c0.63,0,.72.57,0.72,2,0,2-.27,8.55-0.27,11-0.09.95-.27,1.52-0.81,1.52-0.72,0-.9-0.48-1-1.9l-0.09-1c-0.18-2.47-2.62-5.13-10.65-5.32l-11.37-.29v39c0,8.74,0,16.25.45,20.33,0.27,2.66.81,4.75,3.52,5.13a36.25,36.25,0,0,0,4.6.38c1,0,1.44.29,1.44,0.76,0,0.67-.72,1-1.71,1-6,0-11.64-.29-14.17-0.29-2.08,0-7.76.29-11.37,0.29-1.17,0-1.8-.29-1.8-1,0-.47.36-0.76,1.44-0.76a14.06,14.06,0,0,0,3.25-.38c1.8-.38,2.35-2.47,2.62-5.23,0.45-4,.45-11.5.45-20.24v-39Z"/><path class="cls-1" d="M507.67,32.77c0-14.44,0-17.1-.18-20.14-0.18-3.23-1.08-4.84-3.07-5.32a12.2,12.2,0,0,0-3.25-.38c-0.9,0-1.44-.19-1.44-1,0-.57.72-0.76,2.17-0.76,3.43,0,9.12.29,11.73,0.29,2.26,0,7.58-.29,11-0.29,1.17,0,1.89.19,1.89,0.76,0,0.76-.54,1-1.44,1a14.52,14.52,0,0,0-2.71.28c-2.44.48-3.16,2.09-3.34,5.42-0.18,3-.18,5.7-0.18,20.14V49.49c0,9.22,0,16.72.36,20.81,0.27,2.56.9,4.28,3.61,4.66a36.27,36.27,0,0,0,4.6.38c1,0,1.44.29,1.44,0.76,0,0.67-.72,1-1.71,1-6,0-11.64-.29-14.08-0.29-2.08,0-7.76.29-11.37,0.29-1.17,0-1.8-.29-1.8-1,0-.47.36-0.76,1.44-0.76a14.06,14.06,0,0,0,3.25-.38c1.8-.38,2.35-2,2.62-4.75,0.45-4,.45-11.5.45-20.71V32.77Z"/><path class="cls-1" d="M546.57,5.6c0.27-1.62.81-2.47,1.53-2.47s1.26,0.48,2.44,2.95l24.64,53.58L599.73,5.41c0.63-1.52,1.17-2.28,2-2.28s1.35,1,1.62,2.95l8.21,58.71c0.81,6,1.71,8.74,4.42,9.59a17.21,17.21,0,0,0,5.6,1c0.81,0,1.44.09,1.44,0.67,0,0.76-1.08,1-2.35,1-2.26,0-14.71-.29-18.32-0.57-2.08-.19-2.62-0.47-2.62-1a1.26,1.26,0,0,1,1-1c0.54-.19.81-1.42,0.45-4.08l-5.42-41.8H595.4L575.72,71.62c-2.08,4.46-2.53,5.32-3.34,5.32s-1.71-1.9-3.16-4.75c-2.17-4.37-9.3-18.9-10.38-21.56-0.81-2-6.23-14-9.39-21.09H549.1L544.4,67.35a39.5,39.5,0,0,0-.27,4.46c0,1.81,1.17,2.66,2.71,3a16.58,16.58,0,0,0,3.79.48c0.72,0,1.35.19,1.35,0.67,0,0.85-.81,1-2.17,1-3.79,0-7.85-.29-9.48-0.29s-6,.29-8.94.29c-0.9,0-1.62-.19-1.62-1,0-.48.54-0.67,1.44-0.67a11,11,0,0,0,2.71-.29c2.53-.57,3.25-4.28,3.7-7.5Z"/><path class="cls-1" d="M631.85,32.77c0-14.44,0-17.1-.18-20.14-0.18-3.23-.9-4.75-3.88-5.42a17.66,17.66,0,0,0-3.52-.28c-1,0-1.53-.19-1.53-0.85s0.63-.86,2-0.86c4.78,0,10.47.29,13,.29,2.89,0,20.85,0,22.56-.09a34.41,34.41,0,0,0,3.88-.57,8.13,8.13,0,0,1,1.44-.38c0.45,0,.54.38,0.54,0.85,0,0.67-.45,1.81-0.72,6.18-0.09.95-.27,5.13-0.45,6.27a1,1,0,0,1-.9,1c-0.63,0-.81-0.48-0.81-1.33a10.66,10.66,0,0,0-.54-3.42c-0.63-1.71-1.53-2.85-6-3.42-1.53-.19-11-0.38-12.82-0.38-0.45,0-.63.29-0.63,1v24c0,0.67.09,1,.63,1,2,0,12.37,0,14.44-.19s3.52-.48,4.33-1.42c0.63-.76,1-1.23,1.44-1.23a0.62,0.62,0,0,1,.63.76c0,0.57-.45,2.09-0.72,6.94-0.18,1.9-.36,5.7-0.36,6.36s0,1.81-.81,1.81a0.74,0.74,0,0,1-.81-0.86,26.08,26.08,0,0,0-.36-3.42c-0.45-1.9-1.71-3.33-5.05-3.71-1.71-.19-10.65-0.29-12.82-0.29-0.45,0-.54.38-0.54,1v7.5c0,3.23-.09,12,0,14.73,0.18,6.55,1.63,8,10.83,8,2.35,0,6.14,0,8.48-1.14s3.43-3.13,4.06-7c0.18-1,.36-1.42,1-1.42s0.72,0.76.72,1.71a78.24,78.24,0,0,1-1.17,10.54c-0.63,2.47-1.44,2.47-4.87,2.47-13.63,0-19.68-.57-25-0.57-2.08,0-7.76.29-11.37,0.29-1.17,0-1.8-.29-1.8-1,0-.47.36-0.76,1.44-0.76a14.06,14.06,0,0,0,3.25-.38c1.8-.38,2.26-2.47,2.62-5.23,0.45-4,.45-11.5.45-20.24V32.77Z"/><path class="cls-1" d="M673,75.9c-1.44-.66-1.71-1.14-1.71-3.23,0-5.23.36-10.92,0.45-12.45s0.36-2.47,1.08-2.47,0.9,0.85.9,1.62a21,21,0,0,0,.81,4.84c2,7,7.31,9.59,12.91,9.59,8.12,0,12.09-5.79,12.09-10.83,0-4.66-1.35-9.12-8.84-15.2l-4.15-3.42c-9.93-8.17-13.36-14.82-13.36-22.52,0-10.45,8.3-18,20.85-18A41.64,41.64,0,0,1,706,5.5c0.81,0.19,1.26.48,1.26,1.14,0,1.23-.36,4-0.36,11.4,0,2.09-.27,2.85-1,2.85s-0.9-.57-0.9-1.71a11.88,11.88,0,0,0-2.35-6.27c-1.35-1.81-4-4.66-9.84-4.66-6.68,0-10.74,4.09-10.74,9.79,0,4.37,2.08,7.7,9.57,13.68l2.53,2C705,42.55,709,48.92,709,57.94a19.45,19.45,0,0,1-8.48,16.53,25.08,25.08,0,0,1-14.35,3.9C680.95,78.37,676.89,77.7,673,75.9Z"/></svg>