<?xml version="1.0" encoding="UTF-8" standalone="no"?>
<svg width="275px" height="206px" viewBox="0 0 275 206" version="1.1" xmlns="http://www.w3.org/2000/svg" xmlns:xlink="http://www.w3.org/1999/xlink">
    <!-- Generator: Sketch 39.1 (31720) - http://www.bohemiancoding.com/sketch -->
    <title>THE Mercury News logo</title>
    <desc>Created with Sketch.</desc>
    <defs></defs>
    <g id="Page-1" stroke="none" stroke-width="1" fill="none" fill-rule="evenodd">
        <g id="THE-Mercury-News-logo" fill="#000000">
            <path d="M176.31,45.55 C176.31,56.91 172.12,67.37 158.8,71.18 L157.9,70.65 C162.391299,67.2547355 164.992047,61.9194861 164.9,56.29 L164.9,30.59 C163.26,29.31 160.82,27.67 158.96,26.53 L156.55,28.93 L156.55,48.15 C156.589434,50.0141261 158.00628,51.5593881 159.86,51.76 L159.86,52.15 L152.27,59.82 L143,52.91 L143,52.39 C144.43,51.96 145.1,50.77 145.1,48.93 L145.1,12.93 C145.1,10.73 144.87,9.35 143.22,8.57 L143.22,8.15 L156.17,0 L156.55,0.3 L156.55,26.46 C156.55,26.46 159.1,23.93 165.12,17.59 C168.27,19.65 173.3,23.34 176.32,25.86 L176.32,45.55 L176.31,45.55 Z" id="Shape"></path>
            <path d="M143.880014,41.79 C141.350014,52.22 132.780014,61.45 119.230014,61.45 C105.870014,61.45 92.3200138,54.37 92.3200138,37.28 C92.3200138,25.28 100.590014,18.28 109.610014,14.35 L110.960014,14.88 C105.880014,19.27 103.520014,24.88 103.520014,32.88 C103.520014,44.19 110.110014,51 125.020014,51 C126.712585,50.9121954 128.389853,50.6337689 130.020014,50.17 L130.020014,17.13 C128.047479,17.0643654 126.085497,16.8132585 124.160014,16.38 L124.160014,32.99 C124.160014,37.99 123.160014,40.15 118.600014,42.54 L109.080014,47.45 L107.800014,45.85 L110.580014,44.45 C112.640014,43.38 112.990014,42.16 112.990014,38.36 L112.990014,25.78 C112.990014,23.78 112.750014,23.06 111.190014,22.32 L111.190014,21.72 C115.010014,19.94 120.650014,17.23 122.690014,16.23 L122.690014,16.16 C119.320014,15.26 115.690014,13.97 112.470014,12.93 C109.020014,11.82 106.020014,10.93 103.900014,10.93 C99.0400138,10.93 94.3400138,12.62 91.2000138,20.93 L90.0000138,20.18 C89.9900138,7.34 95.4200138,0 105.770014,0 C110.770014,0 115.770014,1.7 120.350014,3.38 C122.610014,4.22 124.710014,5.01 126.660014,5.63 C128.328792,6.23393891 130.077711,6.5877665 131.850014,6.68 C136.020014,6.68 138.700014,5.22 140.850014,2.17 L141.980014,2.77 C141.980014,10.1 139.610014,16.77 131.380014,17.13 L131.380014,49.76 C136.020014,48.28 139.720014,45.21 142.810014,40.59 L143.880014,41.79 Z" id="Shape"></path>
            <path d="M208.37,30.4 C202.14,35.04 197.71,38.4 192.66,42.13 L192.66,46.57 C195.38,48.35 197.66,49.73 200.25,51.23 L204.37,47.01 L205.65,48.36 L193.85,60.36 C190.08,57.91 184.85,54.45 181,51.57 L181,29.73 C187.28,26.19 194,22.11 200.24,18 C203.49,22.56 205.71,26.02 208.37,30.4 L208.37,30.4 Z M198.37,35.51 C196.77,32.15 194.9,28.63 192.88,25.06 L192.65,25.29 L192.65,39.87 C193.83,39 196.37,37.04 198.37,35.51 L198.37,35.51 Z" id="Shape"></path>
            <path d="M274.58,130.13 C274.58,136.97 266.58,142.23 256.17,142.23 C252.342065,142.029699 248.553456,141.35796 244.89,140.23 C242.05,139.45 237.79,138.35 235.19,138.35 C231.14,138.35 229.32,139.8 227.75,141.73 L227,140.9 C228,135.52 230,128.5 238.58,128.5 C243.53,128.5 247.87,131.05 251.28,133.76 C254.17,136.05 257.51,139.02 260.75,139.02 C264.2,139.02 266.01,137.02 266.01,134.21 C266.01,129.04 257.44,127.31 257.44,120.08 L257.44,119.91 C254.77,122.71 252.88,124.76 250.22,127.58 C246.79,125.51 240.15,121.25 237.29,119.24 L237.29,99.31 C237.29,96.5 236.13,94.57 233.83,94.31 L233.83,94.01 C235.83,91.93 239.45,88.18 242.4,85.29 C246.46,86.79 248.86,90.17 248.86,95.81 L248.86,114.05 C250.78,115.28 254.14,117.14 256.75,118.56 L257.28,118.11 L257.28,98.49 C257.28,95.71 256.56,94.1 253.97,93.3 L253.97,93 C257.31,89.7 259.74,87.19 261.86,85 C263.94,86.56 268.15,89.8 271.63,92.52 L271.63,92.82 C269.727026,93.6684259 268.576573,95.635458 268.77,97.71 L268.77,116.23 C268.75,122.37 274.58,123.09 274.58,130.13 L274.58,130.13 Z" id="Shape"></path>
            <path d="M232.23,96.56 C230.36,98.56 226.43,102.37 224.23,104.3 L223.93,104.22 C222.40799,100.965922 220.649965,97.8275461 218.67,94.83 L217.09,96.41 L217.09,116.06 C218.912949,117.257786 220.795357,118.362533 222.73,119.37 L225.46,116.56 L226.51,117.69 L216.06,128.29 C212.67,126.03 208.79,123.44 205.46,121 L205.46,99.9 C205.46,97.01 204.15,95.04 202,94.64 L202,94.34 C204.63,91.83 207.66,88.78 210.19,86 C213.72,87 216.36,90.36 216.8,94.72 C220.45,91.01 222.41,88.96 225.44,86 C228.047351,89.2865304 230.321847,92.8238911 232.23,96.56 L232.23,96.56 Z" id="Shape"></path>
            <path d="M202.63,120.51 C198.32,125.04 195.04,128.33 195.04,128.33 C190.66253,127.11773 187.60316,123.171467 187.52,118.63 L178.13,128.33 C175.31,126.59 169.93,122.88 167.38,120.96 L167.38,100.51 C167.38,97.51 166.56,95.78 164,95.17 L164,94.87 C164,94.87 168.47,90.27 172.57,86 C176.39,87 178.88,90.57 178.88,96.3 L178.88,115.7 C180.633807,117.08995 182.523376,118.299408 184.52,119.31 L187.3,116.45 L187.3,99.45 C187.3,96.83 186.89,94.97 184.37,94.04 L184.37,93.67 C186.87,91.18 190.28,87.96 192.37,86 C195.19,88.29 199.51,91.47 201.69,93.14 L201.69,93.44 C199.969802,94.162851 198.867043,95.8645918 198.91,97.73 L198.91,114.8 C198.91,117.69 199.97,119.54 202.67,120.21 L202.67,120.51 L202.63,120.51 Z" id="Shape"></path>
            <path d="M162.58,96.45 C160.02038,99.2998242 157.309824,102.01038 154.46,104.57 L154.16,104.57 C152.482853,100.70934 150.496385,96.9905636 148.22,93.45 L147.54,93.9 L147.54,115.24 C149.753079,116.811007 152.094711,118.19257 154.54,119.37 L158.37,115.54 L159.65,116.82 C152.81,123.54 148,128.47 148,128.47 C143.88,125.93 140.44,123.64 136,120.35 L136,98.25 C142.958734,94.879105 149.536273,90.7723338 155.62,86 C158.147589,89.3405173 160.471793,92.8301622 162.58,96.45 L162.58,96.45 Z" id="Shape"></path>
            <path d="M136.22,96.56 C134.35,98.56 130.42,102.37 128.22,104.3 L127.84,104.22 C126.31469,100.978475 124.553282,97.8533959 122.57,94.87 L120.99,96.45 L120.99,116.06 C122.812531,117.258459 124.694974,118.363226 126.63,119.37 L129.38,116.56 L130.51,117.69 L120.06,128.29 C116.67,126.03 112.79,123.44 109.46,121 L109.46,99.9 C109.46,97.01 108.15,95.04 106,94.64 L106,94.34 C108.64,91.83 111.66,88.78 114.19,86 C117.72,87 120.28,90.36 120.73,94.72 C124.38,91.01 126.34,88.96 129.37,86 C131.99647,89.285144 134.291009,92.8224194 136.22,96.56 L136.22,96.56 Z" id="Shape"></path>
            <path d="M106.16,98.4 C99.93,103.03 95.5,106.4 90.45,110.12 L90.45,114.56 C93.17,116.34 95.45,117.72 98.04,119.22 L102.25,115.01 L103.65,116.37 L91.85,128.37 C88.08,125.93 82.85,122.46 79,119.58 L79,97.73 C85.28,94.19 92,90.11 98.24,86 C101.4,90.56 103.54,94.02 106.16,98.4 L106.16,98.4 Z M96.24,103.51 C94.64,100.15 92.77,96.63 90.75,93.06 L90.45,93.29 L90.45,107.88 C91.65,107 94.26,105.04 96.24,103.52 L96.24,103.51 Z" id="Shape"></path>
            <path d="M76.97,120.74 C72.1,125.89 69.1,129.16 69.1,129.16 C63.87,127.43 60.53,124.03 60.53,116.68 L60.53,82.07 C58.8442392,80.4832886 57.0607474,79.0037252 55.19,77.64 L54.59,78.32 L54.59,93.5 L57.45,93.5 L55.1,102.85 L54.5,102.85 L54.5,119.91 L56.15,120.81 L56.15,121.03 L47.66,129.15 L37.1,120.82 L37.1,120.59 C38.5188701,119.758656 39.3056073,118.161579 39.1,116.53 L39.1,102.85 L33.9,102.85 L36.38,93.5 L39.16,93.5 L39.16,86.76 C39.16,82.01 37.35,79.24 33.16,76.99 L33.16,119.61 C33.16,125.01 31.05,130.06 24.44,130.06 C21.02,130.06 18.17,128.7 15.49,128.06 C13.1508708,127.303476 10.724448,126.849782 8.27,126.71 C4.63,126.71 2.1,127.82 1.05,129.26 L0,128.43 C0.68,122.03 4,116.43 11.35,116.43 C12.8472735,116.450641 14.3269361,116.756076 15.71,117.33 C17.57,116.15 17.96,113.88 17.96,109.33 L17.96,102.85 L15.71,102.85 C13.21,102.85 11.95,103.4 11.35,105.48 L10.1,105.03 C10.1,104.36 9.95,103.54 9.95,103.03 C9.95,96.03 14.31,93.48 16.95,93.48 L18,93.48 L18,88.94 C18,81.68 23.16,78.03 33.48,70.82 C33.48,70.82 36.05,69.01 37.48,68.04 C44.74,69.5 49.41,73.38 51.01,79.28 L62.21,68 C65.45,70.11 69.77,73.3 72.58,75.59 L72.58,115.25 C72.58,119.08 74.25,119.94 77.01,120.25 L77.01,120.78 L76.97,120.74 Z M53.1,93.5 L53.1,79.59 L51.22,81.59 L51.22,93.5 L53.1,93.5 L53.1,93.5 Z M53.1,119.13 L53.1,102.85 L51.22,102.85 L51.22,115.7 C51.217423,117.098012 51.9256594,118.401469 53.1,119.16 L53.1,119.13 Z M31.83,118.38 L31.83,76.09 L31.23,75.79 C30.23,76.92 30.03,77.87 30.03,79.92 L30.03,105.1 C30.03,112.19 25.69,115.84 17.48,118.03 L17.48,118.18 C19.5372595,119.278867 21.454443,120.621903 23.19,122.18 C24.6741514,123.575027 26.6057299,124.397277 28.64,124.5 C30.88,124.5 31.87,122.85 31.87,118.41 L31.83,118.38 Z" id="Shape"></path>
            <path d="M195.2,168.8 C192.57,170.04 192.2,171.63 192.2,173.38 L192.2,189.67 C185.74,194.78 180.62,198.84 173.93,204.33 C171.21,202.33 165.84,198.33 162.43,195.61 C161.43,196.67 155.68,202.44 153.86,204.33 C150.98,202.49 144.54,197.83 141.23,195.39 L141.23,174.51 C141.394311,172.387335 140.045312,170.441102 138,169.85 L138,169.55 C140.78,166.69 143.64,164.21 145.52,162.11 C148.98,162.49 152.74,166.76 152.74,171.73 L152.74,190.07 C154.54,191.5 157.69,193.74 160.41,195.48 L160.94,194.95 L160.94,174.67 C160.94,172.07 160.41,171.1 158.39,170.39 L158.39,170.09 L166.39,162.09 L175.26,168.63 L175.26,168.93 C173.540698,169.478294 172.417861,171.129525 172.54,172.93 L172.54,189.84 C174.65,191.49 178.18,193.93 180.54,195.48 L180.69,195.4 L180.69,174.51 C180.69,172.45 180.16,171.17 178.14,170.38 L178.14,170 L186.26,162 L195.21,168.39 L195.21,168.77 L195.2,168.8 Z" id="Shape"></path>
            <path d="M117.86,144.84 C116.77,152.13 111.92,156.15 106.51,156.42 L106.51,205.65 L104.78,205.65 C88.32,179.27 78.14,162.97 76.29,160.17 L76.14,160.17 L76.14,192.54 C80.0057799,192.689649 83.7315222,194.027005 86.81,196.37 L88.81,194.19 L90.24,195.54 L80.24,205.72 C78.69,204.09 73.7,202.34 71.07,202.34 C66.33,202.34 63.22,203.8 61.75,205.34 L61,204.59 C62.34,196.97 67.75,192.91 74.76,192.59 L74.76,178.06 L71.83,178.06 C70.0266609,177.894661 68.316624,178.890175 67.57,180.54 L66.52,180.09 C66.52,179.42 66.44,178.9 66.44,178.44 C66.44,171.2 70.5,168.74 73.58,168.74 L74.71,168.74 L74.71,156.94 C73.31,154.61 71.71,152.73 69.3,152.73 C67.8871011,152.613091 66.5083066,153.205074 65.62,154.31 L64.62,153.56 C66.16,147.18 69.94,144.09 74.84,144.09 C79.74,144.09 82.76,147.17 86.34,152.73 C95.19,166.48 104.98,182.42 104.98,182.42 L105.13,182.42 L105.13,156.42 C102.11366,156.41137 99.186171,155.398008 96.81,153.54 L95.16,155.12 L93.96,153.92 C98.6,149.32 101.18,146.49 103.5,144 C105.311228,145.804122 107.78463,146.784081 110.34,146.71 C112.744397,146.816926 115.084841,145.918427 116.8,144.23 L117.86,144.84 Z" id="Shape"></path>
            <path d="M224.44,162.63 C223.59,168.78 220.62,173.05 215.95,177.51 C218.26,178.95 222.12,181.75 223.95,183.22 L223.95,192.84 C218.200319,195.971693 212.831437,199.756755 207.95,204.12 C206.15046,202.576244 203.860945,201.722106 201.49,201.71 C198.667149,201.767503 195.964683,202.864155 193.9,204.79 L193,204.26 C194,194.95 198.45,190.85 203.07,187.26 C201.21,185.95 197.29,183.01 195.55,181.55 L195.55,172.82 C201.277358,169.750172 206.689919,166.126168 211.71,162 C213.529872,163.508965 215.806478,164.358287 218.17,164.41 C220.23102,164.496652 222.211472,163.602853 223.51,162 L224.44,162.63 Z M218.8,172.48 L218.72,172.33 C217.42475,172.839041 216.051109,173.119859 214.66,173.16 C211.886822,173.223971 209.204858,172.167768 207.22,170.23 L207.07,170.31 L207.07,176.55 C208.347495,177.718692 209.704045,178.797918 211.13,179.78 C214.016343,177.733935 216.598612,175.289701 218.8,172.52 L218.8,172.48 Z M212.41,195.63 L212.41,188.63 C211.043385,187.497667 209.614485,186.442685 208.13,185.47 C203.66,188.47 199.76,191.73 197.68,195.02 L197.76,195.1 C199.968767,193.979897 202.424866,193.43639 204.9,193.52 C207.524825,193.453285 210.103826,194.216138 212.27,195.7 L212.41,195.63 Z" id="Shape"></path>
            <path d="M139.2,174.4 C132.97,179.03 128.54,182.4 123.49,186.12 L123.49,190.56 C126.21,192.34 128.49,193.72 131.08,195.22 L135.29,191.01 L136.65,192.36 L124.85,204.36 C121.07,201.92 115.85,198.45 112,195.57 L112,173.73 C118.28,170.19 125,166.11 131.24,162 C134.44,166.56 136.58,170.02 139.2,174.4 L139.2,174.4 Z M129.28,179.51 C127.68,176.15 125.81,172.63 123.79,169.06 L123.49,169.29 L123.49,183.88 C124.71,183 127.3,181.04 129.28,179.52 L129.28,179.51 Z" id="Shape"></path>
        </g>
    </g>
</svg>