<?xml version="1.0" encoding="UTF-8" standalone="no"?>
<svg width="573px" height="75px" viewBox="0 0 573 75" version="1.1" xmlns="http://www.w3.org/2000/svg" xmlns:xlink="http://www.w3.org/1999/xlink">
    <!-- Generator: Sketch 39.1 (31720) - http://www.bohemiancoding.com/sketch -->
    <title>THE Mercury News logo</title>
    <desc>Created with Sketch.</desc>
    <defs></defs>
    <g id="Page-1" stroke="none" stroke-width="1" fill="none" fill-rule="evenodd">
        <g id="THE-Mercury-News-logo" transform="translate(0.000000, -1.000000)" fill="#000000">
            <path d="M86.74,46.93 C86.74,58.29 82.55,68.75 69.23,72.56 L68.33,72.03 C72.8212989,68.6347355 75.4220472,63.2994861 75.33,57.67 L75.33,31.97 C73.69,30.69 71.25,29.05 69.39,27.91 L66.98,30.31 L66.98,49.53 C67.0194336,51.3941261 68.4362805,52.9393881 70.29,53.14 L70.29,53.53 L62.7,61.2 L53.43,54.29 L53.43,53.77 C54.86,53.34 55.53,52.15 55.53,50.31 L55.53,14.31 C55.53,12.11 55.3,10.73 53.65,9.95 L53.65,9.53 L66.6,1.38 L66.98,1.68 L66.98,27.84 C66.98,27.84 69.53,25.31 75.55,18.97 C78.7,21.03 83.73,24.72 86.75,27.24 L86.75,46.93 L86.74,46.93 Z" id="Shape"></path>
            <path d="M53.89,42.87 C51.36,53.3 42.79,62.53 29.24,62.53 C15.88,62.53 2.33,55.45 2.33,38.36 C2.33,26.36 10.6,19.36 19.62,15.43 L20.97,15.96 C15.89,20.35 13.53,25.96 13.53,33.96 C13.53,45.27 20.12,52.08 35.03,52.08 C36.7225711,51.9921954 38.399839,51.7137689 40.03,51.25 L40.03,18.21 C38.0574655,18.1443654 36.0954837,17.8932585 34.17,17.46 L34.17,34.07 C34.17,39.07 33.17,41.23 28.61,43.62 L19.09,48.53 L17.81,46.93 L20.59,45.53 C22.65,44.46 23,43.24 23,39.44 L23,26.86 C23,24.86 22.76,24.14 21.2,23.4 L21.2,22.8 C25.02,21.02 30.66,18.31 32.7,17.31 L32.7,17.24 C29.33,16.34 25.7,15.05 22.48,14.01 C19.03,12.9 16.03,12.01 13.91,12.01 C9.05,12.01 4.35,13.7 1.21,22.01 L0.01,21.26 C0,8.42 5.43,1.08 15.78,1.08 C20.78,1.08 25.78,2.78 30.36,4.46 C32.62,5.3 34.72,6.09 36.67,6.71 C38.3387783,7.31393891 40.0876975,7.6677665 41.86,7.76 C46.03,7.76 48.71,6.3 50.86,3.25 L51.99,3.85 C51.99,11.18 49.62,17.85 41.39,18.21 L41.39,50.84 C46.03,49.36 49.73,46.29 52.82,41.67 L53.89,42.87 Z" id="Shape"></path>
            <path d="M118.43,31.29 C112.2,35.93 107.77,39.29 102.72,43.02 L102.72,47.46 C105.44,49.24 107.72,50.62 110.31,52.12 L114.43,47.9 L115.71,49.25 L103.91,61.25 C100.14,58.8 94.91,55.34 91.06,52.46 L91.06,30.62 C97.34,27.08 104.06,23 110.3,18.89 C113.55,23.45 115.77,26.91 118.43,31.29 L118.43,31.29 Z M108.43,36.4 C106.83,33.04 104.96,29.52 102.94,25.95 L102.71,26.18 L102.71,40.76 C103.89,39.89 106.43,37.93 108.43,36.4 L108.43,36.4 Z" id="Shape"></path>
            <path d="M397.43,63.84 C397.43,70.68 389.43,75.94 379.02,75.94 C375.192065,75.739699 371.403456,75.0679598 367.74,73.94 C364.9,73.16 360.64,72.06 358.04,72.06 C353.99,72.06 352.17,73.51 350.6,75.44 L349.85,74.61 C350.85,69.23 352.85,62.21 361.43,62.21 C366.38,62.21 370.72,64.76 374.13,67.47 C377.02,69.76 380.36,72.73 383.6,72.73 C387.05,72.73 388.86,70.73 388.86,67.92 C388.86,62.75 380.29,61.02 380.29,53.79 L380.29,53.62 C377.62,56.42 375.73,58.47 373.07,61.29 C369.64,59.22 363,54.96 360.14,52.95 L360.14,33.02 C360.14,30.21 358.98,28.28 356.68,28.02 L356.68,27.72 C358.68,25.64 362.3,21.89 365.25,19 C369.31,20.5 371.71,23.88 371.71,29.52 L371.71,47.76 C373.63,48.99 376.99,50.85 379.6,52.27 L380.13,51.82 L380.13,32.2 C380.13,29.42 379.41,27.81 376.82,27.01 L376.82,26.71 C380.16,23.41 382.59,20.9 384.71,18.71 C386.79,20.27 391,23.51 394.48,26.23 L394.48,26.53 C392.577026,27.3784259 391.426573,29.345458 391.62,31.42 L391.62,49.94 C391.6,56.08 397.43,56.8 397.43,63.84 L397.43,63.84 Z" id="Shape"></path>
            <path d="M355.67,29.53 C353.8,31.53 349.87,35.34 347.67,37.27 L347.37,37.19 C345.84799,33.9359216 344.089965,30.7975461 342.11,27.8 L340.53,29.38 L340.53,49.03 C342.352949,50.2277862 344.235357,51.3325329 346.17,52.34 L348.9,49.53 L349.95,50.66 L339.5,61.26 C336.11,59 332.23,56.41 328.9,53.97 L328.9,32.87 C328.9,29.98 327.59,28.01 325.44,27.61 L325.44,27.31 C328.07,24.8 331.1,21.75 333.63,18.97 C337.16,19.97 339.8,23.33 340.24,27.69 C343.89,23.98 345.85,21.93 348.88,18.97 C351.487351,22.2565304 353.761847,25.7938911 355.67,29.53 L355.67,29.53 Z" id="Shape"></path>
            <path d="M325.15,53.47 C320.84,58 317.56,61.29 317.56,61.29 C313.18253,60.0777295 310.12316,56.1314672 310.04,51.59 L300.65,61.29 C297.83,59.55 292.45,55.84 289.9,53.92 L289.9,33.47 C289.9,30.47 289.08,28.74 286.52,28.13 L286.52,27.83 C286.52,27.83 290.99,23.23 295.09,18.96 C298.91,19.96 301.4,23.53 301.4,29.26 L301.4,48.66 C303.153807,50.0499503 305.043376,51.2594083 307.04,52.27 L309.82,49.41 L309.82,32.41 C309.82,29.79 309.41,27.93 306.89,27 L306.89,26.63 C309.39,24.14 312.8,20.92 314.89,18.96 C317.71,21.25 322.03,24.43 324.21,26.1 L324.21,26.4 C322.489802,27.122851 321.387043,28.8245918 321.43,30.69 L321.43,47.76 C321.43,50.65 322.49,52.5 325.19,53.17 L325.19,53.47 L325.15,53.47 Z" id="Shape"></path>
            <path d="M285.69,29.27 C283.13038,32.1198242 280.419824,34.8303802 277.57,37.39 L277.27,37.39 C275.592853,33.5293397 273.606385,29.8105636 271.33,26.27 L270.65,26.72 L270.65,48.06 C272.863079,49.6310074 275.204711,51.0125701 277.65,52.19 L281.48,48.36 L282.76,49.64 C275.92,56.36 271.11,61.29 271.11,61.29 C266.99,58.75 263.55,56.46 259.11,53.17 L259.11,31.07 C266.068734,27.699105 272.646273,23.5923338 278.73,18.82 C281.257589,22.1605173 283.581793,25.6501622 285.69,29.27 L285.69,29.27 Z" id="Shape"></path>
            <path d="M259.08,29.53 C257.21,31.53 253.28,35.34 251.08,37.27 L250.7,37.19 C249.17469,33.9484746 247.413282,30.8233959 245.43,27.84 L243.85,29.42 L243.85,49.03 C245.672531,50.2284589 247.554974,51.333226 249.49,52.34 L252.24,49.53 L253.37,50.66 L242.92,61.26 C239.53,59 235.65,56.41 232.32,53.97 L232.32,32.87 C232.32,29.98 231.01,28.01 228.86,27.61 L228.86,27.31 C231.5,24.8 234.52,21.75 237.05,18.97 C240.58,19.97 243.14,23.33 243.59,27.69 C247.24,23.98 249.2,21.93 252.23,18.97 C254.85647,22.255144 257.151009,25.7924194 259.08,29.53 L259.08,29.53 Z" id="Shape"></path>
            <path d="M228.94,31.29 C222.71,35.92 218.28,39.29 213.23,43.01 L213.23,47.45 C215.95,49.23 218.23,50.61 220.82,52.11 L225.03,47.9 L226.43,49.26 L214.63,61.26 C210.86,58.82 205.63,55.35 201.78,52.47 L201.78,30.62 C208.06,27.08 214.78,23 221.02,18.89 C224.18,23.45 226.32,26.91 228.94,31.29 L228.94,31.29 Z M219.02,36.4 C217.42,33.04 215.55,29.52 213.53,25.95 L213.23,26.18 L213.23,40.77 C214.43,39.89 217.04,37.93 219.02,36.41 L219.02,36.4 Z" id="Shape"></path>
            <path d="M200.3,53.77 C195.43,58.92 192.43,62.19 192.43,62.19 C187.2,60.46 183.86,57.06 183.86,49.71 L183.86,15.1 C182.174239,13.5132886 180.390747,12.0337252 178.52,10.67 L177.92,11.35 L177.92,26.53 L180.78,26.53 L178.43,35.88 L177.83,35.88 L177.83,52.94 L179.48,53.84 L179.48,54.06 L170.99,62.18 L160.43,53.85 L160.43,53.62 C161.84887,52.7886559 162.635607,51.1915793 162.43,49.56 L162.43,35.88 L157.23,35.88 L159.71,26.53 L162.49,26.53 L162.49,19.79 C162.49,15.04 160.68,12.27 156.49,10.02 L156.49,52.64 C156.49,58.04 154.38,63.09 147.77,63.09 C144.35,63.09 141.5,61.73 138.82,61.09 C136.480871,60.3334761 134.054448,59.8797821 131.6,59.74 C127.96,59.74 125.43,60.85 124.38,62.29 L123.33,61.46 C124.01,55.06 127.33,49.46 134.68,49.46 C136.177274,49.4806413 137.656936,49.7860762 139.04,50.36 C140.9,49.18 141.29,46.91 141.29,42.36 L141.29,35.88 L139.04,35.88 C136.54,35.88 135.28,36.43 134.68,38.51 L133.43,38.06 C133.43,37.39 133.28,36.57 133.28,36.06 C133.28,29.06 137.64,26.51 140.28,26.51 L141.33,26.51 L141.33,21.97 C141.33,14.71 146.49,11.06 156.81,3.85 C156.81,3.85 159.38,2.04 160.81,1.07 C168.07,2.53 172.74,6.41 174.34,12.31 L185.54,1.03 C188.78,3.14 193.1,6.33 195.91,8.62 L195.91,48.28 C195.91,52.11 197.58,52.97 200.34,53.28 L200.34,53.81 L200.3,53.77 Z M176.43,26.53 L176.43,12.62 L174.55,14.62 L174.55,26.53 L176.43,26.53 L176.43,26.53 Z M176.43,52.16 L176.43,35.88 L174.55,35.88 L174.55,48.73 C174.547423,50.1280124 175.255659,51.4314688 176.43,52.19 L176.43,52.16 Z M155.16,51.41 L155.16,9.12 L154.56,8.82 C153.56,9.95 153.36,10.9 153.36,12.95 L153.36,38.13 C153.36,45.22 149.02,48.87 140.81,51.06 L140.81,51.21 C142.867259,52.3088669 144.784443,53.6519027 146.52,55.21 C148.004151,56.6050274 149.93573,57.4272773 151.97,57.53 C154.21,57.53 155.2,55.88 155.2,51.44 L155.16,51.41 Z" id="Shape"></path>
            <path d="M543.09,25.66 C540.46,26.9 540.09,28.49 540.09,30.24 L540.09,46.53 C533.63,51.64 528.51,55.7 521.82,61.19 C519.1,59.19 513.73,55.19 510.32,52.47 C509.32,53.53 503.57,59.3 501.75,61.19 C498.87,59.35 492.43,54.69 489.12,52.25 L489.12,31.37 C489.284311,29.2473351 487.935312,27.3011019 485.89,26.71 L485.89,26.41 C488.67,23.55 491.53,21.07 493.41,18.97 C496.87,19.35 500.63,23.62 500.63,28.59 L500.63,46.93 C502.43,48.36 505.58,50.6 508.3,52.34 L508.83,51.81 L508.83,31.53 C508.83,28.93 508.3,27.96 506.28,27.25 L506.28,26.95 L514.28,18.95 L523.15,25.49 L523.15,25.79 C521.430698,26.3382944 520.307861,27.9895253 520.43,29.79 L520.43,46.7 C522.54,48.35 526.07,50.79 528.43,52.34 L528.58,52.26 L528.58,31.37 C528.58,29.31 528.05,28.03 526.03,27.24 L526.03,26.86 L534.15,18.86 L543.1,25.25 L543.1,25.63 L543.09,25.66 Z" id="Shape"></path>
            <path d="M466.05,1.83 C464.96,9.12 460.11,13.14 454.7,13.41 L454.7,62.64 L452.97,62.64 C436.51,36.26 426.33,19.96 424.48,17.16 L424.33,17.16 L424.33,49.53 C428.19578,49.6796489 431.921522,51.0170054 435,53.36 L437,51.18 L438.43,52.53 L428.43,62.71 C426.88,61.08 421.89,59.33 419.26,59.33 C414.52,59.33 411.41,60.79 409.94,62.33 L409.19,61.58 C410.53,53.96 415.94,49.9 422.95,49.58 L422.95,35.05 L420.02,35.05 C418.216661,34.8846609 416.506624,35.8801754 415.76,37.53 L414.71,37.08 C414.71,36.41 414.63,35.89 414.63,35.43 C414.63,28.19 418.69,25.73 421.77,25.73 L422.9,25.73 L422.9,13.93 C421.5,11.6 419.9,9.72 417.49,9.72 C416.077101,9.60309112 414.698307,10.1950736 413.81,11.3 L412.81,10.55 C414.35,4.17 418.13,1.08 423.03,1.08 C427.93,1.08 430.95,4.16 434.53,9.72 C443.38,23.47 453.17,39.41 453.17,39.41 L453.32,39.41 L453.32,13.41 C450.30366,13.4013695 447.376171,12.388008 445,10.53 L443.35,12.11 L442.15,10.91 C446.79,6.31 449.37,3.48 451.69,0.99 C453.501228,2.79412233 455.97463,3.77408123 458.53,3.7 C460.934397,3.80692568 463.274841,2.90842709 464.99,1.22 L466.05,1.83 Z" id="Shape"></path>
            <path d="M572.86,19.53 C572.01,25.68 569.04,29.95 564.37,34.41 C566.68,35.85 570.54,38.65 572.37,40.12 L572.37,49.74 C566.620319,52.8716932 561.251437,56.6567547 556.37,61.02 C554.57046,59.4762437 552.280945,58.6221058 549.91,58.61 C547.087149,58.6675026 544.384683,59.7641552 542.32,61.69 L541.42,61.16 C542.42,51.85 546.87,47.75 551.49,44.16 C549.63,42.85 545.71,39.91 543.97,38.45 L543.97,29.72 C549.697358,26.650172 555.109919,23.026168 560.13,18.9 C561.949872,20.4089651 564.226478,21.2582873 566.59,21.31 C568.65102,21.396652 570.631472,20.5028528 571.93,18.9 L572.86,19.53 Z M567.22,29.38 L567.14,29.23 C565.84475,29.7390412 564.471109,30.0198595 563.08,30.06 C560.306822,30.1239714 557.624858,29.0677679 555.64,27.13 L555.49,27.21 L555.49,33.45 C556.767495,34.6186921 558.124045,35.6979176 559.55,36.68 C562.436343,34.633935 565.018612,32.1897014 567.22,29.42 L567.22,29.38 Z M560.83,52.53 L560.83,45.53 C559.463385,44.3976674 558.034485,43.3426853 556.55,42.37 C552.08,45.37 548.18,48.63 546.1,51.92 L546.18,52 C548.388767,50.8798969 550.844866,50.3363904 553.32,50.42 C555.944825,50.353285 558.523826,51.1161376 560.69,52.6 L560.83,52.53 Z" id="Shape"></path>
            <path d="M486.87,31.29 C480.64,35.92 476.21,39.29 471.16,43.01 L471.16,47.45 C473.88,49.23 476.16,50.61 478.75,52.11 L482.96,47.9 L484.32,49.25 L472.52,61.25 C468.74,58.81 463.52,55.34 459.67,52.46 L459.67,30.62 C465.95,27.08 472.67,23 478.91,18.89 C482.11,23.45 484.25,26.91 486.87,31.29 L486.87,31.29 Z M476.95,36.4 C475.35,33.04 473.48,29.52 471.46,25.95 L471.16,26.18 L471.16,40.77 C472.38,39.89 474.97,37.93 476.95,36.41 L476.95,36.4 Z" id="Shape"></path>
        </g>
    </g>
</svg>