<?xml version="1.0" encoding="UTF-8"?>
<svg width="377px" height="80px" viewBox="0 0 377 80" version="1.1" xmlns="http://www.w3.org/2000/svg" xmlns:xlink="http://www.w3.org/1999/xlink">
    <g id="Page-1" stroke="none" stroke-width="1" fill="none" fill-rule="evenodd">
        <g id="Group" fill="#000000">
            <path d="M171.9,1.3 L171.9,1.6 L171.9,1.6 C173.2,1.6 174.1,2.6 174.1,4.4 L174.1,12.8 L174,12.8 L164.7,1.3 L159.7,1.3 L159.6,1.3 L159.6,1.6 C161.1,1.7 161.7,2.3 162.3,3.3 L162.3,15.1 C162.3,16.2 161.9,17.1 161.3,17.5 C161.1,17.7 160.9,17.8 160.6,17.8 L160.4,17.8 L160.1,17.8 L160.2,18.2 L165.6,18.2 L165.6,17.8 C164.3,17.8 163.4,16.7 163.4,15 L163.4,4.6 L163.5,4.6 L174.4,18.1 L175.2,18.1 L175.2,4.4 C175.2,2.6 176,1.6 177.4,1.6 L177.4,1.3 L171.9,1.3" id="Shape"></path>
            <path d="M291.5,1.3 L291.1,5.1 L291.1,5.6 L291.5,5.6 C291.9,3.5 292.8,2.2 295,2.2 L297.5,2.2 L297.5,15.3 C297.5,16.7 296.8,17.7 295.3,17.7 L295.3,18.1 L302.8,18.1 L302.8,17.7 C301.3,17.7 300.6,16.7 300.6,15.3 L300.6,2.1 L303.2,2.1 C305.3,2.1 306.2,3.5 306.6,5.5 L307,5.5 L306.7,1.1 L291.5,1.3" id="Shape"></path>
            <path d="M233.6,13.6 C232.3,15.7 230.4,17.4 227.7,17.4 C224.2,17.4 221.8,13.9 221.8,9.1 C221.8,4.6 224,1.7 227.5,1.7 C230.1,1.7 232.7,3.1 233.3,6.3 L233.8,6.3 L233.8,6.3 L233.4,1.1 L232.9,1.1 C232.7,1.5 232.2,1.6 231.9,1.6 C230.9,1.6 229.9,1 227.2,1 C222,1 218.4,4.4 218.4,9.9 C218.4,15 222,18.6 227,18.6 C230.7,18.6 232.7,16.6 234.1,14.2 L233.6,13.6" id="Shape"></path>
            <path d="M271.7,17.9 C270.2,17.9 269.4,16.8 269.4,15.4 L269.4,4 C269.4,2.5 270.2,1.6 271.7,1.6 L271.7,1.3 L264.3,1.3 L264.1,1.3 L264.1,1.6 C265.6,1.6 266.2,2.6 266.2,4 L266.2,15.4 C265.1,16.8 263.4,17.7 261.9,17.7 C258.8,17.7 258.2,16.2 258.2,13 L258.2,4 C258.2,2.6 258.9,1.6 260.4,1.6 L260.4,1.3 L253,1.3 L252.9,1.3 L252.9,1.6 C254.4,1.6 255.1,2.5 255.1,4 L255.1,12.8 C255.1,17 257.1,18.6 261.1,18.6 C263.6,18.6 265.2,17.5 266.3,16.4 L266.4,16.4 L266.4,18.3 L271.8,18.3 L271.7,17.9" id="Shape"></path>
            <path d="M210,13.9 L209.5,13.8 C208.6,16.3 207.7,17.2 205.8,17.2 L202,17.2 C200.9,17.2 200.8,17 200.8,16.5 L200.8,16.2 L200.8,10.2 L203.2,10.2 C204.8,10.2 205.5,10.6 205.6,12.3 L206.1,12.3 L206.1,6.7 L205.7,6.7 C205.5,8.5 204.7,8.9 203.3,8.9 L200.9,8.9 L200.9,2.5 L205.9,2.5 C207.7,2.5 208.4,3.9 208.9,5.8 L209.3,5.8 L209.3,5.8 L208.9,1.4 L195.6,1.4 L195.6,1.7 L195.6,1.7 C197.2,1.7 197.8,2.7 197.8,4.1 L197.8,15.5 C197.8,16.9 197.2,17.9 195.6,17.9 L195.6,18.3 L209.4,18.3 L210,13.9" id="Shape"></path>
            <path d="M188.4,9.5 L188.3,9.5 L188.3,10.1 C189.8,10.1 190.2,10.5 190.2,12.3 L190.2,15.1 C190.2,17 188.7,17.9 185.8,17.9 C182.3,17.9 180.4,14.3 180.4,9.5 C180.4,5.1 182,1.7 186.2,1.6 C189.6,1.6 191,3.6 191.7,6.4 L192.1,6.4 L192.1,6.4 L191.7,1.3 L191.4,1.3 C190.9,1.6 190.3,1.6 190.2,1.6 L190.2,1.6 C189.5,1.6 187.7,0.8 186.1,0.8 C180.1,0.8 176.8,4.8 176.8,10 C176.8,15 180.4,18.6 186.1,18.6 C189.7,18.6 191.5,17.2 193,17.2 L193,12.3 C193,10.5 193.5,10.1 195,10.1 L195,9.5 L195,9.5 L188.4,9.5" id="Shape"></path>
            <path d="M244.1,0.7 C238.8,0.7 235,4.3 235,9.5 C235,14.7 238.8,18.5 244,18.5 C249.2,18.5 252.9,14.6 252.9,9.5 C253,4.5 249.3,0.7 244.1,0.7 L244.1,0.7 Z M243.9,17.9 C240.5,17.9 238.3,14.5 238.3,9.7 C238.3,4.8 240.4,1.6 244,1.6 C247.5,1.6 249.6,4.9 249.6,9.9 C249.6,14.6 247.5,17.9 243.9,17.9 Z" id="Shape"></path>
            <path d="M119,0.8 C113.7,0.8 109.9,4.3 109.9,9.5 C109.9,14.7 113.7,18.6 118.9,18.6 C124.1,18.6 127.8,14.7 127.8,9.5 C127.9,4.5 124.1,0.8 119,0.8 L119,0.8 Z M118.9,17.9 C115.5,17.9 113.3,14.5 113.3,9.7 C113.3,4.8 115.3,1.6 118.9,1.6 C122.4,1.6 124.4,4.9 124.4,9.9 C124.4,14.6 122.4,17.9 118.9,17.9 Z" id="Shape"></path>
            <path d="M319.1,1.3 L319.1,1.6 C320.1,1.6 320.7,2.1 320.8,2.9 C320.8,3.3 320.3,4 320.1,4.3 L317.2,8.9 L317,8.9 L314.1,3.8 C314,3.6 313.7,3 313.7,2.7 C313.7,2.1 314,1.6 315,1.6 L315.3,1.6 L315.3,1.3 L308,1.3 L308,1.6 C309.7,1.7 309.7,2.1 310.9,4 L314.8,10.5 L314.8,15.3 C314.8,16.6 314.3,17.6 313.2,17.8 L313.2,18.2 L319.6,18.2 L319.6,17.8 C318.4,17.6 317.8,16.5 317.8,15.3 L317.8,10.3 L322.5,3.3 C322.8,2.8 323.4,1.7 324.9,1.6 L324.9,1.3 L319.1,1.3" id="Shape"></path>
            <path d="M285.3,1.3 L285.3,1.6 L285.3,1.6 C286.6,1.6 287.5,2.6 287.5,4.4 L287.5,12.8 L287.4,12.8 L278,1.3 L273,1.3 L272.9,1.3 L272.9,1.6 C274.4,1.7 275,2.3 275.6,3.3 L275.6,15.1 C275.6,16.2 275.2,17.1 274.6,17.5 C274.4,17.7 274.2,17.8 273.9,17.8 L273.7,17.8 L273.5,17.8 L273.5,18.2 L279,18.2 L279,17.8 C277.7,17.8 276.9,16.8 276.8,15.2 L276.8,15 L276.8,4.6 L276.9,4.6 L287.8,18.1 L288.6,18.1 L288.6,4.4 C288.6,2.6 289.4,1.6 290.8,1.6 L290.8,1.3 L285.3,1.3" id="Shape"></path>
            <path d="M144.5,17.8 C143.8,17.8 142.8,16.7 142.7,16.7 C142.3,16.1 141.7,15.3 141.1,14.2 L140.1,12.4 C139.4,11.3 138.6,10.5 137.7,10 L137.7,9.9 C139.5,9.4 141.1,7.6 141.1,5.7 C141.1,3 138.9,1.4 135.5,1.3 L128.1,1.3 L127.9,1.3 L127.9,1.6 L127.9,1.6 C129.4,1.6 130.1,2.6 130.1,4 L130.1,15.4 C130.1,16.8 129.4,17.8 127.9,17.8 L127.9,18.2 L135.4,18.2 L135.4,17.8 C133.9,17.8 133.2,16.9 133.2,15.4 L133.2,10.4 L133.7,10.4 C134.6,10.4 135.3,10.8 135.9,11.7 C136.4,12.3 137.3,13.6 138.4,15.5 C139.5,17.4 140.8,18.4 142.4,18.4 C143.3,18.4 144.1,18.2 144.5,18.1 L144.5,17.8 L144.5,17.8 L144.5,17.8 L144.5,17.8 Z M134.5,9.3 L133.2,9.3 L133.2,2.4 L134.6,2.4 C136.7,2.4 137.9,3.7 137.9,6.1 C137.9,8.3 136.6,9.3 134.5,9.3 Z" id="Shape"></path>
            <path d="M160.8,17.8 C160.5,17.7 160.2,17.7 160,17.6 C160,17.6 159.9,17.6 159.9,17.5 C159.6,17.4 159.4,17.2 159.3,17.1 C158.9,16.7 158.7,15.9 158.5,15.4 L152.9,0.8 L152.9,0.7 C152,1.3 150.8,1.7 149.7,2 L149.7,2.3 C150.1,2.4 150.2,2.6 150.4,3 L145.6,15.9 C145.2,17.1 144.8,17.9 143.5,17.9 L143.5,18.2 L143.5,18.2 L148,18.2 L148,17.8 C146.8,17.7 146.4,17.3 146.4,16.9 C146.4,16.7 146.6,16.2 146.8,15.7 L147.9,12.6 L154.2,12.6 L155.4,15.8 C155.5,16.1 155.7,16.4 155.7,16.7 C155.7,17.1 155.5,17.7 154.4,17.7 L154.4,18.1 L161.1,18.1 L161.1,17.7 C161,17.9 160.9,17.8 160.8,17.8 L160.8,17.8 Z M148.3,11.7 L151,4.3 L151.1,4.3 L153.8,11.6 L153.8,11.6 L148.3,11.6 L148.3,11.7 Z" id="Shape"></path>
            <rect id="Rectangle-path" x="72.2" y="9" width="10.4" height="1.1"></rect>
            <path d="M73.6,4 C73.6,2.5 74.4,1.6 75.9,1.6 L75.9,1.3 L68.5,1.3 L68.4,1.3 L68.4,1.7 C69.9,1.7 70.5,2.7 70.5,4.1 L70.5,8.1 L70.5,15.6 C70.5,17.1 69.7,18 68.2,18 L68.2,18.4 L75.6,18.4 L75.8,18.4 L75.8,18.1 C74.3,18.1 73.7,17.1 73.7,15.7 L73.7,8.2 L73.6,4" id="Shape"></path>
            <path d="M84.9,4 C84.9,2.5 85.7,1.6 87.2,1.6 L87.2,1.3 L79.8,1.3 L79.7,1.3 L79.7,1.7 C81.2,1.7 81.8,2.7 81.8,4.1 L81.8,8.1 L81.8,15.6 C81.8,17.1 81,18 79.5,18 L79.5,18.4 L86.9,18.4 L87,18.4 L87,18.1 C85.5,18.1 84.9,17.1 84.9,15.7 L84.9,8.2 L84.9,4" id="Shape"></path>
            <path d="M51.6,1.2 L51.2,5 L51.2,5.5 L51.6,5.5 C52,3.4 52.9,2.1 55.1,2.1 L57.6,2.1 L57.6,15.2 C57.6,16.6 56.9,17.6 55.4,17.6 L55.4,18 L62.9,18 L62.9,17.6 C61.4,17.6 60.7,16.6 60.7,15.2 L60.7,2 L63.3,2 C65.4,2 66.3,3.4 66.7,5.4 L67.1,5.4 L66.8,1 L51.6,1.2" id="Shape"></path>
            <path d="M103,13.8 L102.5,13.7 C101.6,16.2 100.7,17.1 98.8,17.1 L95,17.1 C93.9,17.1 93.8,16.9 93.8,16.4 L93.8,16.1 L93.8,10.1 L96.2,10.1 C97.8,10.1 98.5,10.5 98.6,12.2 L99,12.2 L99,6.6 L98.6,6.6 C98.4,8.4 97.6,8.8 96.2,8.8 L93.8,8.8 L93.8,2.4 L98.8,2.4 C100.6,2.4 101.3,3.8 101.8,5.7 L102.2,5.7 L102.2,5.7 L101.8,1.3 L88.5,1.3 L88.5,1.6 L88.5,1.6 C90.1,1.6 90.7,2.6 90.7,4 L90.7,15.4 C90.7,16.8 90.1,17.8 88.5,17.8 L88.5,18.2 L102.3,18.2 L103,13.8" id="Shape"></path>
            <path d="M318.1,63.2 L316.6,63.2 L316.4,63.7 C313.7,71.1 311.5,73.2 306.1,73.2 L293.9,73.2 C292.1,73.2 291.8,72.9 291.8,71.2 L291.8,53 L295.8,53 C300.3,53 302,54.5 302.4,59 L302.5,59.7 L305,59.7 L305,41.7 L302.6,41.7 L302.5,42.4 C302,46.7 300.1,48.5 295.9,48.5 L291.8,48.5 L291.8,30.1 L304.2,30.1 C310,30.1 312.3,36 313.1,39.5 L313.2,40.1 L315.8,40.1 L313.7,26.4 L313.6,25.7 L275.3,25.7 L275.3,28.2 L276.1,28.2 C280.5,28.3 281.3,30.4 281.3,34.5 L281.3,68.6 C281.3,73.2 279.9,75 276.2,75 L275.4,75 L275.4,77.6 L316.8,77.6 L319.1,63.1 L318.1,63.1" id="Shape"></path>
            <path d="M273.4,39.1 L271.3,25.7 L227.3,25.7 L227.2,26.4 L225.3,39.2 L225.2,40.1 L227.9,40.1 L228,39.5 C229.5,33 232.6,30.1 238.1,30.1 L244,30.1 L244,68.6 C244,72.7 243.3,74.6 238.9,74.9 L238.2,75 L238.2,77.6 L260.9,77.6 L260.9,75 L260.1,75 C256.1,74.9 254.7,73.2 254.7,68.7 L254.7,30.1 L261,30.1 C266.8,30.1 269.8,32.9 271.1,39.4 L271.2,40 L273.7,40 L273.4,39.1" id="Shape"></path>
            <path d="M212.7,46.8 C210.9,46.1 209.1,45.4 207.2,44.7 C205.4,44 203.5,43.3 201.7,42.6 C199.8,41.8 196.6,40 196.6,36.4 C196.6,32.6 200.8,29.7 206.3,29.7 C214.5,29.7 218.8,32.7 220.9,39.6 L221.1,40.2 L223.6,40.2 L221.4,26.5 L221.3,25.8 L219.5,25.8 L219.3,26.2 C218.8,27.2 218.4,27.2 218.3,27.2 C217.3,27.2 216.2,26.8 214.8,26.4 C212.7,25.7 210,24.8 206.5,24.8 C194.8,24.8 186.9,30.8 186.9,39.6 C186.9,46.2 190.6,50.9 198.3,53.8 C200.2,54.5 201.9,55.2 203.7,55.8 L204.9,56.2 C214.7,59.8 216.1,61.4 216.1,65.5 C216.1,70.3 212.2,73.3 206,73.3 C196,73.3 190.8,69.5 188.5,60.6 L188.3,60 L186,60 L186.1,60.9 L188.5,77.7 L190.6,77.7 L190.7,77.1 C190.9,76.1 191.4,75.6 191.7,75.6 C192.6,75.6 193.8,75.9 195.3,76.4 C198.2,77.2 202.1,78.3 207.5,78.3 C218.2,78.3 226.9,71.1 226.9,62.2 C227,54.1 221.3,50.2 212.7,46.8" id="Shape"></path>
            <path d="M182.5,25.7 L160.6,25.7 L160.6,28.2 L161.4,28.2 C165.9,28.3 166.6,30.4 166.6,34.6 L166.6,68.6 C166.6,72.8 165.8,74.8 161.4,74.9 L160.7,74.9 L160.7,77.6 L183.4,77.6 L183.4,75 L182.6,75 C178.6,74.9 177.3,73.3 177.3,68.7 L177.3,34.7 C177.3,30 178.6,28.4 182.6,28.3 L183.4,28.3 L183.4,25.8 L182.5,25.8" id="Shape"></path>
            <path d="M160.6,50.5 L138.3,50.5 L138.3,53 L139.1,53 C143.4,53 144.4,54.2 144.4,59.5 L144.4,67.4 C144.4,71.1 143,75 132.8,75 C123.1,75 117.5,66.3 117.5,51.1 C117.5,35.8 122.9,28.1 133.5,28.1 C142.1,28.1 147.4,31.8 149.8,39.5 L150,40 L152.4,40 L152.3,39.1 L150.4,25.4 L148.7,25.4 L148.5,25.7 C148,26.3 147.6,26.6 145.9,26.6 C144.7,26.6 143.1,26.1 141.3,25.5 C138.9,24.8 136.2,23.9 133.6,23.9 C125,23.9 117.9,26.7 113,32.1 C108.5,37.1 106.1,44 106.1,52.2 C106.1,59.9 108.7,66.5 113.5,71.3 C118.5,76.2 125.6,78.8 134,78.8 C139.1,78.8 142.4,77.8 145.6,76.7 L146.2,76.5 C146.7,76.3 147.3,76.1 147.9,75.9 C150,75.2 152.4,74.4 154.3,74.3 L155,74.3 L155,59.3 C155,54.3 156,53.1 160.6,52.8 L161.3,52.8 L161.3,50.3 L160.6,50.3" id="Shape"></path>
            <path d="M376,75.6 C375.4,75.8 374.5,75.9 373.5,75.9 C371.9,75.9 370.8,74.4 368.2,71 C367.8,70.5 367.4,69.9 366.9,69.3 C364.8,66.6 362.9,64.1 361.1,61.5 L360.5,60.7 C358,57.3 356.1,54.6 353.4,53.2 C360,50.9 365,45 365,38.9 C365,30.8 358.1,25.7 347,25.7 L321.1,25.7 L321.1,28.2 L321.9,28.2 C325.6,28.3 327.1,30.2 327.1,34.8 L327.1,68.6 C327.1,73 325.6,74.9 321.9,74.9 L321.1,74.9 L321.1,77.6 L344,77.6 L344,75 L343.2,75 C339.3,74.9 337.6,73 337.6,68.7 L337.6,54.9 L340.8,54.9 C344,54.9 345.6,55.7 347.2,58.2 C348.5,60.2 350,62.4 351.8,65.3 C352.6,66.6 353.5,67.9 354.5,69.4 L355.2,70.4 C358.4,75.3 361.4,79.9 367.9,79.9 C372.2,79.9 374.5,79.2 376.5,78.3 L376.9,78.1 L376.9,75.2 L376,75.6 L376,75.6 Z M354.1,39.9 C354.1,47.2 349,50.4 344,50.4 L337.7,50.4 L337.7,30.1 L344.3,30.1 C350.7,30.1 354.1,33.5 354.1,39.9 Z" id="Shape"></path>
            <path d="M104.9,63.2 L103.5,63.2 L103.3,63.7 C100.8,70.8 98.1,73.2 92.8,73.2 L80.7,73.2 C78.4,73.2 78.4,72.8 78.4,71.7 L78.4,53 L82.6,53 C87.2,53 88.9,54.5 89.3,59 L89.4,59.7 L91.7,59.7 L91.7,41.7 L89.7,41.7 L89.6,42.4 C89.1,46.7 87.1,48.5 82.8,48.5 L78.5,48.5 L78.5,30.1 L90.9,30.1 C97,30.1 99.2,36 100,39.5 L100.1,40.1 L102.4,40.1 L100.3,26.4 L100.2,25.7 L62,25.7 L62,28.2 L62.7,28.2 C67.1,28.4 67.8,30.3 67.8,34.5 L67.8,68.8 C67.8,73.2 66.6,74.7 63.4,74.7 C60.2,74.7 57,70.2 53.6,65.4 L53.1,64.7 C51.4,62.3 49.9,60.1 48.1,57.6 L47.4,56.6 C45.4,53.7 43,51.6 40.3,50.5 C45.1,49 52.2,45 52.2,35.3 C52.2,25.8 43.3,19.9 29.1,19.9 C17.1,19.9 6.3,21.9 1.8,23 L1.3,23.1 L1.2,23.6 L0.1,29.7 L0,30.5 L0.7,30.7 L1.6,30.9 L2.1,31 L2.4,30.6 C4.1,28.4 5.7,26.8 11.9,25.7 L11.9,68.6 C11.9,72.9 10.2,74.8 6.1,74.9 L5.4,74.9 L5.4,77.6 L29.5,77.6 L29.5,75 L28.8,75 C24.6,74.8 22.8,72.9 22.8,68.7 L22.8,52.3 L27.3,52.3 C31.5,52.3 33.3,54 34.8,56.6 C36.4,59.4 38.9,63.7 42.3,69.4 C46,75.7 49.7,79.6 56.4,79.6 C60.4,79.6 63.7,79 66.8,77.7 L103.5,77.7 L103.6,77.1 L105.9,63.2 L104.9,63.2 L104.9,63.2 Z M40.7,36.3 C40.7,43.5 36.7,47.8 29.9,47.8 L22.8,47.8 L22.8,24.7 C24.4,24.5 26.4,24.4 29.2,24.4 C34.7,24.3 40.7,27.5 40.7,36.3 Z" id="Shape"></path>
        </g>
    </g>
</svg>