<?xml version="1.0" encoding="UTF-8"?>
<svg width="91px" height="52px" viewBox="0 0 91 52" version="1.1" xmlns="http://www.w3.org/2000/svg" xmlns:xlink="http://www.w3.org/1999/xlink">
    <g id="Page-1" stroke="none" stroke-width="1" fill="none" fill-rule="evenodd">
        <g id="Group" fill="#000000">
            <path d="M59.2113636,43.1909091 C57.025,46.7227273 53.8295455,49.5818182 49.2886364,49.5818182 C43.4022727,49.5818182 39.3659091,43.6954545 39.3659091,35.6227273 C39.3659091,28.0545455 43.0659091,23.1772727 48.9522727,23.1772727 C53.325,23.1772727 57.6977273,25.5318182 58.7068182,30.9136364 L59.5477273,30.9136364 L59.5477273,30.9136364 L58.875,22.1681818 L58.0340909,22.1681818 C57.6977273,22.8409091 56.8568182,23.0090909 56.3522727,23.0090909 C54.6704545,23.0090909 52.9886364,22 48.4477273,22 C39.7022727,22 33.6477273,27.7181818 33.6477273,36.9681818 C33.6477273,45.5454545 39.7022727,51.6 48.1113636,51.6 C54.3340909,51.6 57.6977273,48.2363636 60.0522727,44.2 L59.2113636,43.1909091" id="Shape"></path>
            <path d="M15.8696966,21 C6.69891008,21 0.123629179,27.0561798 0.123629179,36.0539326 C0.123629179,45.0516854 6.69891008,51.8 15.6966629,51.8 C24.6944157,51.8 31.0966629,45.0516854 31.0966629,36.0539326 C31.2696966,27.4022472 24.6944157,21 15.8696966,21 L15.8696966,21 Z M15.6966629,50.588764 C9.81351682,50.588764 6.00677525,44.705618 6.00677525,36.4 C6.00677525,27.9213483 9.4674494,22.3842697 15.6966629,22.3842697 C21.7528427,22.3842697 25.2135168,28.094382 25.2135168,36.7460674 C25.2135168,44.8786517 21.7528427,50.588764 15.6966629,50.588764 Z" id="Shape"></path>
            <rect id="Rectangle-path" x="39.2" y="8" width="10.4" height="1.1"></rect>
            <path d="M40.6,3 C40.6,1.5 41.4,0.6 42.9,0.6 L42.9,0.3 L35.5,0.3 L35.4,0.3 L35.4,0.7 C36.9,0.7 37.5,1.7 37.5,3.1 L37.5,7.1 L37.5,14.6 C37.5,16.1 36.7,17 35.2,17 L35.2,17.4 L42.6,17.4 L42.8,17.4 L42.8,17.1 C41.3,17.1 40.7,16.1 40.7,14.7 L40.7,7.2 L40.6,3" id="Shape"></path>
            <path d="M51.9,3 C51.9,1.5 52.7,0.6 54.2,0.6 L54.2,0.3 L46.8,0.3 L46.7,0.3 L46.7,0.7 C48.2,0.7 48.8,1.7 48.8,3.1 L48.8,7.1 L48.8,14.6 C48.8,16.1 48,17 46.5,17 L46.5,17.4 L53.9,17.4 L54,17.4 L54,17.1 C52.5,17.1 51.9,16.1 51.9,14.7 L51.9,7.2 L51.9,3" id="Shape"></path>
            <path d="M18.6,0.2 L18.2,4 L18.2,4.5 L18.6,4.5 C19,2.4 19.9,1.1 22.1,1.1 L24.6,1.1 L24.6,14.2 C24.6,15.6 23.9,16.6 22.4,16.6 L22.4,17 L29.9,17 L29.9,16.6 C28.4,16.6 27.7,15.6 27.7,14.2 L27.7,1 L30.3,1 C32.4,1 33.3,2.4 33.7,4.4 L34.1,4.4 L33.8,-1.77635684e-15 L18.6,0.2" id="Shape"></path>
            <path d="M70,12.8 L69.5,12.7 C68.6,15.2 67.7,16.1 65.8,16.1 L62,16.1 C60.9,16.1 60.8,15.9 60.8,15.4 L60.8,15.1 L60.8,9.1 L63.2,9.1 C64.8,9.1 65.5,9.5 65.6,11.2 L66,11.2 L66,5.6 L65.6,5.6 C65.4,7.4 64.6,7.8 63.2,7.8 L60.8,7.8 L60.8,1.4 L65.8,1.4 C67.6,1.4 68.3,2.8 68.8,4.7 L69.2,4.7 L69.2,4.7 L68.8,0.3 L55.5,0.3 L55.5,0.6 L55.5,0.6 C57.1,0.6 57.7,1.6 57.7,3 L57.7,14.4 C57.7,15.8 57.1,16.8 55.5,16.8 L55.5,17.2 L69.3,17.2 L70,12.8" id="Shape"></path>
            <path d="M89.2329749,49.0896057 C88.4014337,49.0896057 87.8297491,48.3100358 86.4784946,46.5430108 C86.2706093,46.2831541 86.062724,45.9713262 85.8028674,45.6594982 C84.7114695,44.2562724 83.7240143,42.9569892 82.7885305,41.6057348 L82.4767025,41.1899642 C81.1774194,39.4229391 80.1899642,38.0197133 78.7867384,37.2921147 C82.2168459,36.0967742 84.8154122,33.0304659 84.8154122,29.8602151 C84.8154122,25.6505376 81.2293907,23 75.4605735,23 L62,23 L62,24.2992832 L62.4157706,24.2992832 C64.3387097,24.3512545 65.1182796,25.3387097 65.1182796,27.7293907 L65.1182796,45.2956989 C65.1182796,47.5824373 64.3387097,48.5698925 62.4157706,48.5698925 L62,48.5698925 L62,49.9731183 L73.9014337,49.9731183 L73.9014337,48.6218638 L73.4856631,48.6218638 C71.4587814,48.5698925 70.5752688,47.5824373 70.5752688,45.3476703 L70.5752688,38.1756272 L72.2383513,38.1756272 C73.9014337,38.1756272 74.7329749,38.5913978 75.5645161,39.890681 C76.2401434,40.9301075 77.0197133,42.0734767 77.9551971,43.5806452 C78.3709677,44.2562724 78.8387097,44.9318996 79.3584229,45.7114695 L79.7222222,46.2311828 C81.3853047,48.7777778 82.9444444,51.1684588 86.3225806,51.1684588 C88.5573477,51.1684588 89.7526882,50.8046595 90.7921147,50.3369176 L91,50.2329749 L91,48.7258065 L90.5322581,48.9336918 C90.2204301,49.0376344 89.7526882,49.0896057 89.2329749,49.0896057 Z M79.1505376,30.3799283 C79.1505376,34.1738351 76.5,35.8369176 73.9014337,35.8369176 L70.6272401,35.8369176 L70.6272401,25.2867384 L74.0573477,25.2867384 C77.3835125,25.2867384 79.1505376,27.0537634 79.1505376,30.3799283 Z" id="Shape"></path>
        </g>
    </g>
</svg>