<?xml version="1.0" encoding="UTF-8"?>
<svg width="59px" height="57px" viewBox="0 0 59 57" version="1.1" xmlns="http://www.w3.org/2000/svg" xmlns:xlink="http://www.w3.org/1999/xlink">
    <g id="Page-1" stroke="none" stroke-width="1" fill="none" fill-rule="evenodd">
        <g id="Group">
            <rect id="Rectangle" fill="#FE002A" x="0" y="0" width="59" height="57"></rect>
            <path d="M17.3,8.8 L16.1,8.8 C15.4,8.8 14.8,9 14.8,9.9 L14.8,23.9 C14.8,24.9 15,25.1 15.7,25.2 L16.6,25.2 C19.6,25.2 21.5,23.5 21.5,17.3 C21.5,10.5 20.5,8.9 17.3,8.8 M19.2,26.3 C18.1,26.3 17.5,26.1 16.4,26.1 L15.4,26.1 C14.9,26.1 14.8,26.4 14.8,27 L14.8,39.6 C14.8,40.3 15.5,40.9 16.9,40.9 C17.3,40.9 17.9,40.8 18.4,40.8 C18.4,41 18.3,42 18.5,42 L12.4,42 L6,42 C6.2,42 6.1,41 6,40.8 C6.4,40.9 7.2,40.9 7.5,40.9 C8.2,40.9 9.2,40.7 9.2,39.7 L9.2,9.5 C9.2,8.7 8.1,8.6 7.4,8.6 C7,8.6 6.4,8.7 6,8.7 C6,8.5 6.2,7.5 6,7.5 L12.5,7.5 L18.6,7.5 L19.1,7.5 C24.3,7.5 26.8,10.3 26.8,17.1 C26.9,23.3 24.1,26.3 19.2,26.3" id="Shape" fill="#FFFFFF"></path>
            <path d="M52.7,41.7 C49.4,41.8 34.7,41.8 30.9,41.7 C31.1,41.7 31,40.6 30.9,40.4 C31.5,40.5 32.1,40.5 32.5,40.5 C33.9,40.5 34.4,40 34.4,39.3 L34.4,9.2 C34.4,8.5 33.9,8.2 32.4,8.2 C32.1,8.2 31.4,8.2 30.9,8.3 C30.9,8.2 31.1,7.1 30.9,7.1 C34,7 47.3,7.1 51.6,7.1 C51.5,8.3 51.6,15.8 51.8,17.8 L50.8,17.8 C50,9.6 48.5,8.2 41.9,8.2 L41.3,8.2 C40.2,8.2 40.1,8.3 40,9.7 L40,21.8 C40,23.1 40.4,23.4 41.3,23.4 C44.6,23.4 46,21.5 46,15.9 L47.2,15.9 C47,19 47,29.5 47.2,32.3 L46,32.3 C46,25.9 44.7,24.4 41.3,24.4 C40.4,24.4 40,24.8 40,26 L40,37.1 C40.1,39.8 40.8,40.3 42.2,40.3 L43.3,40.3 C49.7,40.3 51.7,37.6 51.9,29.7 L53,29.7 C52.8,32.2 52.6,40.6 52.7,41.7" id="Shape" fill="#FFFFFF"></path>
            <path d="M53,50 L6,50 C7.08045977,47.9 6.54022989,46.92 6,46.5 L53,46.5 C51.9195402,47.34 53,49.58 53,50" id="Shape" fill="#FFFFFF" transform="translate(29.500000, 48.250000) scale(1, -1) translate(-29.500000, -48.250000) "></path>
        </g>
    </g>
</svg>