<?xml version="1.0" encoding="UTF-8"?>
<svg width="143px" height="64px" viewBox="0 0 143 64" version="1.1" xmlns="http://www.w3.org/2000/svg" xmlns:xlink="http://www.w3.org/1999/xlink">
    <g id="Page-1" stroke="none" stroke-width="1" fill="none" fill-rule="evenodd">
        <g id="Group" fill="#000000">
            <path d="M43.1,15.3 C43.1,26 33.9,29.1 26.3,30.3 C30.3,30.9 36.1,32.4 39.5,38.1 C41.1,40.8 41.7,45.5 42,49.3 C43,60 44.5,62.3 47.3,62.3 C49,62.3 50.4,61.7 51.8,60.7 L52,61 C49.8,62.6 47.5,63.8 44.1,63.8 C37.5,63.8 33.2,61.1 32.5,47.7 C32.2,43 31.9,36.5 28.8,33.2 C27.1,31.4 24.4,30.8 22.1,30.8 L15.1,30.8 L15.1,60.3 C15.1,61.1 15.3,62.1 16.6,62.1 L21.6,62.2 L21.6,62.6 C18,62.6 14.8,62.5 11.2,62.5 C7.4,62.5 3.7,62.6 0,62.6 L0,62.2 L5.2,62.1 C6.6,62.1 6.7,61.1 6.7,60.3 L6.7,2.3 C6.7,1.5 6.5,0.5 5.2,0.5 L0,0.4 L0,0 C3.8,0 7.5,0.1 11.2,0.1 C14.8,0.1 20.4,0 24,0 C31.3,-7.10542736e-15 43.1,2.4 43.1,15.3 Z M16.7,0.5 C15.4,0.5 15.2,1.5 15.2,2.3 L15.2,30.2 C28.9,30.7 33.6,28.1 33.6,15.7 C33.6,4.5 28.7,0.5 20,0.5 L16.7,0.5 Z" id="Shape"></path>
            <path d="M100.8,31.6 C100.8,49.3 91,62.7 76,62.7 C71.8,62.7 67.9,62.6 63.7,62.6 C59.8,62.6 56.2,62.7 52.5,62.7 L52.5,62.3 L57.7,62.2 C59.1,62.2 59.2,61.2 59.2,60.4 L59.2,2.6 C59.2,1.8 59,0.8 57.7,0.8 L52.5,0.7 L52.5,0.3 C56.3,0.3 60,0.4 63.7,0.4 C71.2,0.4 73,0.3 76,0.3 C91,0.3 100.8,13.8 100.8,31.6 Z M75.8,62.3 C84.2,62.3 88.2,56.8 89.8,48.8 C90.3,46.2 91.4,41.6 91.4,31.6 C91.4,22.3 90.4,17 89.8,14.3 C88.1,6.6 83.9,0.8 75.9,0.8 L69.1,0.8 C67.8,0.8 67.6,1.8 67.6,2.6 L67.6,60.5 C67.6,61.3 67.8,62.3 69.1,62.3 L75.8,62.3 Z" id="Shape"></path>
            <path d="M117.5,0.5 C116.2,0.5 116,1.5 116,2.3 L116,29.8 C127.4,29.8 130.8,27 132.1,17.2 L132.5,17.2 L132.5,43.1 L132,43.1 C130.5,31.8 125.4,30.2 116,30.2 L116,60.1 C116,60.9 116.2,61.9 117.5,61.9 L122.7,62 L122.7,62.4 C118.4,62.4 116.3,62.3 112,62.3 C108.2,62.3 104.5,62.4 100.8,62.4 L100.8,62 L106,61.9 C107.4,61.9 107.5,60.9 107.5,60.1 L107.5,2.3 C107.5,1.5 107.3,0.5 106,0.5 L100.8,0.4 L100.8,0 C104.6,0 108.3,0.1 112,0.1 C116.1,0.1 120.6,0 142.1,0 L142.7,18 L142.2,18 C141.8,16 141.1,12 139.2,7.7 C137.4,3.7 133.8,0.4 131.1,0.4 L117.5,0.4 L117.5,0.5 Z" id="Shape"></path>
        </g>
    </g>
</svg>