<?xml version="1.0" encoding="UTF-8"?>
<svg width="634px" height="86px" viewBox="0 0 634 86" version="1.1" xmlns="http://www.w3.org/2000/svg" xmlns:xlink="http://www.w3.org/1999/xlink">
    <g id="Page-1" stroke="none" stroke-width="1" fill="none" fill-rule="evenodd">
        <g id="Group" fill="#000000">
            <path d="M43.7,16.6 C43.7,27.3 34.5,30.4 26.9,31.6 C30.9,32.2 36.7,33.7 40.1,39.4 C41.7,42.1 42.3,46.8 42.6,50.6 C43.6,61.3 45.1,63.6 47.9,63.6 C49.6,63.6 51,63 52.4,62 L52.6,62.3 C50.4,63.9 48.1,65.1 44.7,65.1 C38.1,65.1 33.8,62.4 33.1,49 C32.8,44.3 32.5,37.8 29.4,34.5 C27.7,32.7 25,32.1 22.7,32.1 L15.7,32.1 L15.7,61.6 C15.7,62.4 15.9,63.4 17.2,63.4 L22.2,63.5 L22.2,63.9 C18.6,63.9 15.4,63.8 11.8,63.8 C8,63.8 4.3,63.9 0.6,63.9 L0.6,63.5 L5.8,63.4 C7.2,63.4 7.3,62.4 7.3,61.6 L7.3,3.6 C7.3,2.8 7.1,1.8 5.8,1.8 L0.6,1.7 L0.6,1.3 C4.4,1.3 8.1,1.4 11.8,1.4 C15.4,1.4 21,1.3 24.6,1.3 C31.9,1.3 43.7,3.7 43.7,16.6 Z M17.3,1.8 C16,1.8 15.8,2.8 15.8,3.6 L15.8,31.5 C29.5,32 34.2,29.4 34.2,17 C34.2,5.8 29.3,1.8 20.6,1.8 L17.3,1.8 Z" id="Shape"></path>
            <path d="M67.4,64.6 C57.8,64.6 49.7,58.6 49.7,44 C49.7,31 57.7,23.1 66.8,23.1 C76,23.1 81.9,29.2 81.9,40.6 L81.9,42 L58,42 C58,48.1 58.2,52.5 58.8,55.6 C59.8,60.2 62.7,63.8 67.6,63.8 C75.4,63.8 79.4,58.2 81.9,51.6 L82.3,51.8 C79.8,59.1 75.1,64.6 67.4,64.6 Z M73.3,31 C72.7,27.3 71.1,23.5 66.2,23.5 C62.1,23.5 59.9,26.8 58.9,31.1 C58.3,34 58.1,39.1 58,41.8 L73.7,41.8 C73.6,39.3 73.6,33.3 73.3,31 Z" id="Shape"></path>
            <path d="M117.4,61.5 C117.4,62.3 117.6,63.3 118.9,63.3 L122,63.4 L122,63.8 L116.1,63.8 C114.2,63.8 110.9,64.3 109.6,64.5 L109.6,58.4 C107,62 103.4,64.9 98.6,64.9 C88.2,64.9 84.6,55 84.6,44.2 C84.6,33.1 88.6,23.1 99,23.1 C103.8,23.1 107,25.3 109.6,29 L109.6,3.6 C109.6,2.8 109.4,1.8 108.1,1.8 L103.4,1.7 L103.4,1.3 L110.9,1.3 C112.8,1.3 116.1,0.9 117.4,0.6 L117.4,61.5 Z M109.7,29.8 C108.2,27.5 105.5,24.1 100.8,24.1 C97.7,24.1 95.2,26.2 94.1,31.1 C93.4,34.2 93.2,40 93.2,43.9 C93.2,47.8 93.4,53.6 94,56.7 C95,61.7 97.7,63.5 100.8,63.5 C104.9,63.5 108.3,59.9 109.7,57.5 L109.7,29.8 L109.7,29.8 Z" id="Shape"></path>
            <path d="M136.7,61.5 C136.7,62.3 136.9,63.3 138.2,63.3 L141,63.4 L141,63.8 C137.4,63.8 137,63.7 133.4,63.7 C129.6,63.7 128.1,63.8 124.3,63.8 L124.3,63.4 L127.4,63.3 C128.7,63.3 128.9,62.3 128.9,61.5 L128.9,3.6 C128.9,2.8 128.7,1.8 127.4,1.8 L123.6,1.7 L123.6,1.3 L130.2,1.3 C132.1,1.3 135.4,0.9 136.7,0.6 L136.7,61.5 Z" id="Shape"></path>
            <path d="M177.9,59.1 C175.8,62.5 173.8,64.6 169.9,64.6 C165,64.6 163.5,61.4 163.3,58.1 C160.2,62.5 156.3,64.6 151.7,64.6 C147.3,64.6 141.8,62.5 141.8,54.3 C141.8,42.9 154.6,40.9 163.2,40.9 L163.2,30.6 C163.2,26.8 160.9,23.5 155.7,23.5 C152.4,23.5 149,24.7 147.6,26.1 L147.6,26.6 C150.7,26.4 152.6,28.4 152.6,31.2 C152.6,33.3 150.8,35.8 148,35.8 C145.1,35.8 143.3,34.1 143.3,31.1 C143.3,26.3 150,23.2 156.6,23.2 C167.1,23.2 170.6,28.5 170.6,32.6 L170.6,58.6 C170.6,60.2 171,62 173.3,62 C175.1,62 176.8,60 177.4,58.9 L177.9,59.1 Z M163.3,41.2 C158.3,41.3 153,41.9 150.5,47.2 C149.8,48.6 149.5,51.1 149.5,53.1 C149.5,56.1 149.9,57.9 150.2,58.9 C150.9,61.1 152.4,62.4 155.2,62.4 C158.5,62.4 161.7,60 163.3,57.5 L163.3,41.2 L163.3,41.2 Z" id="Shape"></path>
            <path d="M183.5,24.1 C185.4,24.1 188.7,23.7 190,23.4 L190,30.7 C194.2,25.5 198.3,23.1 203.8,23.1 C209.5,23.1 213.2,27.4 213.3,32.9 L213.3,61.4 C213.3,62.2 213.5,63.2 214.8,63.2 L217.8,63.3 L217.8,63.7 C214.2,63.7 213.7,63.6 210.1,63.6 C206.3,63.6 204.5,63.7 200.7,63.7 L200.7,63.3 L204,63.2 C205.4,63.2 205.5,62.2 205.5,61.4 L205.5,32.1 C205.5,26.9 202.4,25.6 199.7,25.6 C195.1,25.6 191.7,29.1 190,31.4 L190,61.5 C190,62.3 190.2,63.3 191.5,63.3 L194.9,63.4 L194.9,63.8 C191.3,63.8 190.3,63.7 186.7,63.7 C182.9,63.7 181.5,63.8 177.7,63.8 L177.7,63.4 L180.7,63.3 C182.1,63.3 182.2,62.3 182.2,61.5 L182.2,26.4 C182.2,25.6 182,24.6 180.7,24.6 L177.6,24.5 L177.6,24.1 L183.5,24.1 L183.5,24.1 Z" id="Shape"></path>
            <path d="M250.9,61.5 C250.9,62.3 251.1,63.3 252.4,63.3 L255.5,63.4 L255.5,63.8 L249.6,63.8 C247.7,63.8 244.4,64.3 243.1,64.5 L243.1,58.4 C240.5,62 236.9,64.9 232.1,64.9 C221.7,64.9 218.1,55 218.1,44.2 C218.1,33.1 222.1,23.1 232.5,23.1 C237.3,23.1 240.5,25.3 243.1,29 L243.1,3.6 C243.1,2.8 242.9,1.8 241.6,1.8 L236.9,1.7 L236.9,1.3 L244.4,1.3 C246.3,1.3 249.6,0.9 250.9,0.6 L250.9,61.5 L250.9,61.5 Z M243.2,29.8 C241.7,27.5 239,24.1 234.3,24.1 C231.2,24.1 228.7,26.2 227.6,31.1 C226.9,34.2 226.7,40 226.7,43.9 C226.7,47.8 226.9,53.6 227.5,56.7 C228.5,61.7 231.2,63.5 234.3,63.5 C238.4,63.5 241.8,59.9 243.2,57.5 L243.2,29.8 L243.2,29.8 Z" id="Shape"></path>
            <path d="M272.4,64.6 C265.6,64.6 261.7,60.6 260.1,61 C259.6,61.1 258.8,62.9 258.4,63.7 L258.2,63.7 L258.2,48.8 L258.5,48.8 C259.6,57.2 264.6,64.4 272.4,64.4 C277.8,64.4 281,60.5 281,55.7 C281,50.1 276.7,48.7 270.1,47.2 C264.1,45.8 258.8,43.1 258.8,35.2 C258.8,27.7 264.9,23.2 271.6,23.2 C278.5,23.2 280.8,26.5 282.9,26.3 C283.4,26.2 283.7,25.1 284,24.2 L284.2,24.2 L284.2,36.5 L283.9,36.5 C282.5,30.6 279.6,23.5 271.8,23.5 C265.8,23.5 264.2,28 264.2,31.5 C264.2,36.3 267.9,38.2 273.1,39.4 C281.4,41.3 286.7,43.9 286.7,51.6 C286.6,58.4 281.4,64.6 272.4,64.6 Z" id="Shape"></path>
            <path d="M352.8,32.6 C352.8,50.3 343,63.7 328,63.7 C323.8,63.7 319.9,63.6 315.7,63.6 C311.8,63.6 308.2,63.7 304.5,63.7 L304.5,63.3 L309.7,63.2 C311.1,63.2 311.2,62.2 311.2,61.4 L311.2,3.6 C311.2,2.8 311,1.8 309.7,1.8 L304.5,1.7 L304.5,1.3 C308.3,1.3 312,1.4 315.7,1.4 C323.2,1.4 325,1.3 328,1.3 C343,1.3 352.8,14.8 352.8,32.6 Z M327.8,63.3 C336.2,63.3 340.2,57.8 341.8,49.8 C342.3,47.2 343.4,42.6 343.4,32.6 C343.4,23.3 342.4,18 341.8,15.3 C340.1,7.6 335.9,1.8 327.9,1.8 L321.1,1.8 C319.8,1.8 319.6,2.8 319.6,3.6 L319.6,61.5 C319.6,62.3 319.8,63.3 321.1,63.3 L327.8,63.3 Z" id="Shape"></path>
            <path d="M390.5,59.1 C388.4,62.5 386.4,64.6 382.5,64.6 C377.6,64.6 376.1,61.4 375.9,58.1 C372.8,62.5 368.9,64.6 364.3,64.6 C359.9,64.6 354.4,62.5 354.4,54.3 C354.4,42.9 367.2,40.9 375.8,40.9 L375.8,30.6 C375.8,26.8 373.5,23.5 368.3,23.5 C365,23.5 361.6,24.7 360.2,26.1 L360.2,26.6 C363.3,26.4 365.2,28.4 365.2,31.2 C365.2,33.3 363.4,35.8 360.6,35.8 C357.7,35.8 355.9,34.1 355.9,31.1 C355.9,26.3 362.6,23.2 369.2,23.2 C379.7,23.2 383.2,28.5 383.2,32.6 L383.2,58.6 C383.2,60.2 383.6,62 385.9,62 C387.7,62 389.4,60 390,58.9 L390.5,59.1 Z M375.8,41.2 C370.8,41.3 365.5,41.9 363,47.2 C362.3,48.6 362,51.1 362,53.1 C362,56.1 362.4,57.9 362.7,58.9 C363.4,61.1 364.9,62.4 367.7,62.4 C371,62.4 374.2,60 375.8,57.5 L375.8,41.2 Z" id="Shape"></path>
            <path d="M402.6,61.5 C402.6,62.3 402.8,63.3 404.1,63.3 L407,63.4 L407,63.8 C403.4,63.8 403,63.7 399.4,63.7 C395.6,63.7 394.1,63.8 390.3,63.8 L390.3,63.4 L393.4,63.3 C394.7,63.3 394.9,62.3 394.9,61.5 L394.9,26.4 C394.9,25.6 394.7,24.6 393.4,24.6 L390.2,24.5 L390.2,24.1 L396.2,24.1 C398.1,24.1 401.4,23.7 402.7,23.4 L402.7,61.5 L402.6,61.5 Z M398.5,12.9 C395.8,12.9 393.5,10.7 393.5,8 C393.5,5.3 395.7,3.1 398.5,3.1 C401.3,3.1 403.5,5.3 403.5,8 C403.5,10.6 401.2,12.9 398.5,12.9 Z" id="Shape"></path>
            <path d="M421.5,61.5 C421.5,62.3 421.7,63.3 423,63.3 L425.8,63.4 L425.8,63.8 C422.2,63.8 421.8,63.7 418.2,63.7 C414.4,63.7 412.9,63.8 409.1,63.8 L409.1,63.4 L412.2,63.3 C413.5,63.3 413.7,62.3 413.7,61.5 L413.7,3.6 C413.7,2.8 413.5,1.8 412.2,1.8 L408.4,1.7 L408.4,1.3 L415,1.3 C416.9,1.3 420.2,0.9 421.5,0.6 L421.5,61.5 Z" id="Shape"></path>
            <path d="M457.5,27.7 C458.1,25.9 457.4,24.6 455.5,24.6 L452.4,24.5 L452.4,24.1 C454.2,24.1 455.6,24.2 458.2,24.2 C460.4,24.2 461.7,24.1 463.1,24.1 L463.1,24.5 L461.5,24.6 C460.1,24.6 458.6,26.2 458.1,27.8 L439.7,78.8 C438,83.5 436.6,85.6 433.5,85.6 C430.7,85.6 429,83.6 429,81.1 C429,78.7 430.8,76.8 433.4,76.8 C436.5,76.8 437.7,79.4 437.1,82 L437.5,82.1 C439,79.7 443,68.4 444.3,64.4 L429,26.3 C428.6,25.3 428.2,24.6 427,24.6 L424.6,24.5 L424.6,24.1 C427,24.1 429.6,24.2 433,24.2 C436.9,24.2 439.8,24.1 442.7,24.1 L442.7,24.5 L438.1,24.6 C437.1,24.6 436.8,25.4 437.1,26.2 L448,54.3 L457.5,27.7 Z" id="Shape"></path>
            <path d="M493,1.8 C491.7,1.8 491.5,2.8 491.5,3.6 L491.5,31.1 C502.9,31.1 506.3,28.3 507.6,18.5 L508,18.5 L508,44.4 L507.5,44.4 C506,33.1 500.9,31.5 491.5,31.5 L491.5,61.4 C491.5,62.2 491.7,63.2 493,63.2 L498.2,63.3 L498.2,63.7 C493.9,63.7 491.8,63.6 487.5,63.6 C483.7,63.6 480,63.7 476.3,63.7 L476.3,63.3 L481.5,63.2 C482.9,63.2 483,62.2 483,61.4 L483,3.6 C483,2.8 482.8,1.8 481.5,1.8 L476.3,1.7 L476.3,1.3 C480.1,1.3 483.8,1.4 487.5,1.4 C491.6,1.4 496.1,1.3 517.6,1.3 L518.2,19.3 L517.7,19.3 C517.3,17.3 516.6,13.3 514.7,9 C512.9,5 509.3,1.7 506.6,1.7 L493,1.7 L493,1.8 Z" id="Shape"></path>
            <path d="M551.9,59.1 C549.8,62.5 547.8,64.6 543.9,64.6 C538.9,64.6 537.5,61.4 537.3,58.1 C534.2,62.5 530.3,64.6 525.7,64.6 C521.3,64.6 515.8,62.5 515.8,54.3 C515.8,42.9 528.6,40.9 537.2,40.9 L537.2,30.6 C537.2,26.8 534.9,23.5 529.7,23.5 C526.4,23.5 523,24.7 521.6,26.1 L521.6,26.6 C524.7,26.4 526.6,28.4 526.6,31.2 C526.6,33.3 524.8,35.8 522,35.8 C519.1,35.8 517.3,34.1 517.3,31.1 C517.3,26.3 524,23.2 530.6,23.2 C541.1,23.2 544.6,28.5 544.6,32.6 L544.6,58.6 C544.6,60.2 545,62 547.3,62 C549.1,62 550.8,60 551.4,58.9 L551.9,59.1 Z M537.2,41.2 C532.3,41.3 526.9,41.9 524.4,47.2 C523.7,48.6 523.4,51.1 523.4,53.1 C523.4,56.1 523.8,57.9 524.1,58.9 C524.8,61.1 526.3,62.4 529,62.4 C532.3,62.4 535.5,60 537.1,57.5 L537.1,41.2 L537.2,41.2 Z" id="Shape"></path>
            <path d="M566.9,64.6 C558.3,64.6 550.3,57.9 550.3,44.4 C550.3,31 558.3,23.2 567.9,23.2 C575.6,23.2 580,27 580,31.1 C580,34.1 577.6,36 575,36 C572.7,36 570.3,34.6 570.3,31.3 C570.3,28.2 572.7,26.4 575.3,26.4 L575.3,25.9 C573.9,24.5 571.7,23.7 567.8,23.7 C564.1,23.7 560.9,26.3 559.5,32 C558.9,34.7 558.5,39.6 558.5,44.1 C558.5,48.9 558.7,53.2 559.4,56.2 C560.6,60.9 563.2,64 567.5,64 C574.5,64 578.5,58.4 580.4,51.7 L580.8,51.8 C579,58.5 575.1,64.6 566.9,64.6 Z" id="Shape"></path>
            <path d="M603.3,57.2 C601.5,60.9 599.3,64.7 593.3,64.7 C588.4,64.7 585.4,61.5 585.4,57.7 L585.4,24.5 L580.6,24.5 L580.6,24.1 L585.4,24.1 L585.4,11.7 L587.1,11.7 C588.9,11.7 591.2,11.3 593.1,10.7 L593.1,24.1 L601.6,24.1 L601.6,24.5 L593.1,24.5 L593.1,57.4 C593.1,59.1 593,62.4 596.8,62.4 C599.6,62.4 601.6,59.9 603,57 L603.3,57.2 Z" id="Shape"></path>
            <path d="M619,64.6 C612.2,64.6 608.3,60.6 606.7,61 C606.2,61.1 605.4,62.9 605,63.7 L604.8,63.7 L604.8,48.8 L605.1,48.8 C606.2,57.2 611.2,64.4 619.1,64.4 C624.5,64.4 627.7,60.5 627.7,55.7 C627.7,50.1 623.4,48.7 616.8,47.2 C610.8,45.8 605.5,43.1 605.5,35.2 C605.5,27.7 611.6,23.2 618.3,23.2 C625.2,23.2 627.5,26.5 629.6,26.3 C630.1,26.2 630.4,25.1 630.7,24.2 L630.9,24.2 L630.9,36.5 L630.6,36.5 C629.2,30.6 626.3,23.5 618.5,23.5 C612.5,23.5 610.8,28 610.8,31.5 C610.8,36.3 614.5,38.2 619.7,39.4 C628,41.3 633.3,43.9 633.3,51.6 C633.2,58.4 628,64.6 619,64.6 Z" id="Shape"></path>
        </g>
    </g>
</svg>