<?xml version="1.0" encoding="UTF-8" standalone="no"?>
<svg width="2493px" height="353px" viewBox="0 0 2493 353" version="1.1" xmlns="http://www.w3.org/2000/svg" xmlns:xlink="http://www.w3.org/1999/xlink">
    <!-- Generator: Sketch 39.1 (31720) - http://www.bohemiancoding.com/sketch -->
    <title>silicon valley logo</title>
    <desc>Created with Sketch.</desc>
    <defs></defs>
    <g id="Page-1" stroke="none" stroke-width="1" fill="none" fill-rule="evenodd">
        <g id="silicon-valley-logo" fill="#4B80C2">
            <path d="M153.5,82.8 C143.3,69.7 124.6,61.3 109,61.3 C93.5,61.3 74,66.6 74,86.4 C74,103 88.8,108.3 112.5,115.7 C146.4,126.6 190.2,141.1 190.2,190.9 C190.2,248.4 144,274.2 94.5,274.2 C58.8,274.2 22.8,261.1 0.9,238.2 L40.4,198 C52.4,213.2 74.6,224.5 94.4,224.5 C112.8,224.5 129,217.4 129,197.3 C129,178.2 109.9,172.2 77.1,161.6 C45.3,151.4 13.2,135.1 13.2,89.9 C13.2,34.5 63.3,11.5 109.9,11.5 C138.1,11.5 169.9,22.1 191.8,42.2 L153.5,82.8 L153.5,82.8 Z" id="Shape"></path>
            <path d="M242.5,67.7 C223.8,67.7 209.3,53.2 209.3,35.9 C209.3,19 223.8,4.1 242.5,4.1 C260.9,4.1 275.7,18.2 275.7,35.9 C275.7,53.9 260.8,67.7 242.5,67.7 L242.5,67.7 Z M213.5,267.8 L213.5,92 L271.4,92 L271.4,267.8 L213.5,267.8 L213.5,267.8 Z" id="Shape"></path>
            <polygon id="Shape" points="303.9 267.8 303.9 0.9 362.5 0.9 362.5 267.8 303.9 267.8"></polygon>
            <path d="M423.9,67.7 C405.2,67.7 390.7,53.2 390.7,35.9 C390.7,19 405.2,4.1 423.9,4.1 C442.3,4.1 457.1,18.2 457.1,35.9 C457.1,53.9 442.3,67.7 423.9,67.7 L423.9,67.7 Z M395,267.8 L395,92 L452.9,92 L452.9,267.8 L395,267.8 L395,267.8 Z" id="Shape"></path>
            <path d="M605.8,148.9 C599.4,140.4 586.7,134.8 575.1,134.8 C550.7,134.8 534.5,155.6 534.5,180 C534.5,204.4 550.4,224.8 575.8,224.8 C587.5,224.8 600.2,220.2 607.2,211.7 L639.3,250.9 C624.8,265 600.1,273.5 574.3,273.5 C518.9,273.5 475.8,238.2 475.8,179.9 C475.8,122.7 519.2,86.3 573.9,86.3 C599,86.3 625.4,95.8 639.2,110 L605.8,148.9 L605.8,148.9 Z" id="Shape"></path>
            <path d="M736.7,273.5 C683.7,273.5 639.3,236.8 639.3,179.2 C639.3,121.6 683.8,86.3 736.7,86.3 C790,86.3 834.5,121.6 834.5,179.2 C834.5,236.8 790,273.5 736.7,273.5 L736.7,273.5 Z M736.7,134.4 C709.5,134.4 695.4,156.6 695.4,179.2 C695.4,201.8 709.9,224.7 737.1,224.7 C764.3,224.7 778.8,201.8 778.8,179.2 C778.8,156.6 763.9,134.4 736.7,134.4 L736.7,134.4 Z" id="Shape"></path>
            <path d="M972.6,267.8 L972.6,171.8 C972.6,152.4 967.3,134.7 946.5,134.7 C926,134.7 915.4,152.4 915.4,172.5 L915.4,267.8 L857.1,267.8 L857.1,92 L913.2,92 L913.2,116.4 L913.9,116.4 C922,100.9 942.1,87.1 966.5,87.1 C1013.8,87.1 1030.8,123.8 1030.8,159.1 L1030.8,267.8 L972.6,267.8 L972.6,267.8 Z" id="Shape"></path>
            <polygon id="Shape" points="1187.6 267.8 1127.2 267.8 1032.6 17.8 1100.4 17.8 1158.3 195 1159.7 195 1217.2 17.8 1283.9 17.8"></polygon>
            <path d="M1256.4,116 C1276.9,96.6 1306.2,86.3 1334.8,86.3 C1393.8,86.3 1415.6,115.2 1415.6,179.2 L1415.6,267.8 L1362.6,267.8 L1362.6,249.1 L1361.5,249.1 C1352.7,263.6 1332.6,272 1311.7,272 C1283.8,272 1247.8,258.2 1247.8,216.9 C1247.8,166.1 1309.6,157.6 1360.8,157.6 L1360.8,154.8 C1360.8,137.5 1347,129.4 1329,129.4 C1312.4,129.4 1296.2,137.5 1285.6,147.4 L1256.4,116 L1256.4,116 Z M1362.7,191.2 L1355.3,191.2 C1329.9,191.2 1301.3,194.4 1301.3,215.2 C1301.3,228.6 1314.7,233.2 1326.4,233.2 C1349.7,233.2 1362.8,219.1 1362.8,197.2 L1362.8,191.2 L1362.7,191.2 Z" id="Shape"></path>
            <polygon id="Shape" points="1445.3 267.8 1445.3 0.9 1503.9 0.9 1503.9 267.8 1445.3 267.8"></polygon>
            <polygon id="Shape" points="1536.4 267.8 1536.4 0.9 1595 0.9 1595 267.8 1536.4 267.8"></polygon>
            <path d="M1800.8,195.8 L1673.4,195.8 C1675.2,215.2 1694.6,229 1715.4,229 C1733.8,229 1746.5,221.2 1754.2,210.6 L1794.4,236 C1777.8,260 1750.3,273.4 1714.6,273.4 C1661.6,273.4 1617.9,239.9 1617.9,180.5 C1617.9,123 1659.6,86.2 1712.9,86.2 C1764.8,86.2 1801.2,121.9 1801.2,181.9 C1801.2,186.6 1801.2,191.6 1800.8,195.8 L1800.8,195.8 Z M1747.8,159.8 C1747.8,141.4 1736.1,126.3 1713.2,126.3 C1691,126.3 1674.7,141.8 1673.3,159.8 L1747.8,159.8 L1747.8,159.8 Z" id="Shape"></path>
            <path d="M1922.3,294.3 C1908.2,331 1889.1,352.6 1845,352.6 C1834.1,352.6 1821.7,350.8 1813.2,348.7 L1819.6,300 C1825.2,301.8 1832.7,303.2 1838.3,303.2 C1856.3,303.2 1862.3,294.7 1868,279.5 L1873.6,265 L1800.2,92 L1864.5,92 L1903.7,205 L1904.8,205 L1939.8,92 L2001.2,92 L1922.3,294.3 L1922.3,294.3 Z" id="Shape"></path>
            <polygon id="Shape" points="1992.4 235.7 2023.6 235.7 2023.6 267.9 1992.4 267.9"></polygon>
            <path d="M2036.6,206.5 L2036.6,206 C2036.6,170.8 2063.9,141.1 2101,141.1 C2124.5,141.1 2139.1,149.8 2150.6,162.5 L2133,181.5 C2124.3,172.3 2115.1,166 2100.8,166 C2080.1,166 2065.1,183.9 2065.1,205.5 L2065.1,206 C2065.1,228.1 2080.4,245.9 2102.2,245.9 C2115.6,245.9 2125.5,239.6 2134.4,230.4 L2151.6,247.3 C2139.4,260.9 2125,270.6 2100.8,270.6 C2063.9,270.7 2036.6,241.8 2036.6,206.5 L2036.6,206.5 Z" id="Shape"></path>
            <path d="M2156.7,206.5 L2156.7,206 C2156.7,170.5 2184.9,141.1 2223,141.1 C2261.1,141.1 2289,170 2289,205.5 L2289,206 C2289,241.2 2260.8,270.6 2222.5,270.6 C2184.6,270.7 2156.7,241.8 2156.7,206.5 L2156.7,206.5 Z M2260.5,206.5 L2260.5,206 C2260.5,184.1 2244.8,166.1 2222.4,166.1 C2199.6,166.1 2185,184 2185,205.6 L2185,206.1 C2185,227.7 2200.7,246 2222.8,246 C2246,246 2260.5,227.9 2260.5,206.5 L2260.5,206.5 Z" id="Shape"></path>
            <path d="M2303.8,143.8 L2332.2,143.8 L2332.2,162.6 C2340.2,151.6 2351,141.2 2370,141.2 C2387.9,141.2 2400.3,149.9 2406.9,163.1 C2417,149.9 2430.2,141.2 2449,141.2 C2476,141.2 2492.5,158.4 2492.5,188.7 L2492.5,267.9 L2464,267.9 L2464,197.4 C2464,177.7 2454.8,167.1 2438.9,167.1 C2423.4,167.1 2412.3,177.9 2412.3,197.9 L2412.3,267.9 L2383.9,267.9 L2383.9,197.2 C2383.9,177.9 2374.5,167.1 2358.8,167.1 C2343.1,167.1 2332.2,178.8 2332.2,198.1 L2332.2,267.9 L2303.8,267.9 L2303.8,143.8 L2303.8,143.8 Z" id="Shape"></path>
        </g>
    </g>
</svg>