<?xml version="1.0" encoding="UTF-8" standalone="no"?>
<svg width="1030px" height="761px" viewBox="0 0 1030 761" version="1.1" xmlns="http://www.w3.org/2000/svg" xmlns:xlink="http://www.w3.org/1999/xlink">
    <!-- Generator: Sketch 39.1 (31720) - http://www.bohemiancoding.com/sketch -->
    <title>silicon valley logo</title>
    <desc>Created with Sketch.</desc>
    <defs></defs>
    <g id="Page-1" stroke="none" stroke-width="1" fill="none" fill-rule="evenodd">
        <g id="silicon-valley-logo" fill="#4B80C2">
            <path d="M152.6,82.1 C142.4,69 123.7,60.6 108.1,60.6 C92.6,60.6 73.1,65.9 73.1,85.7 C73.1,102.3 87.9,107.6 111.6,115 C145.5,125.9 189.3,140.4 189.3,190.2 C189.3,247.7 143.1,273.5 93.6,273.5 C57.9,273.5 21.9,260.4 0,237.5 L39.5,197.3 C51.5,212.5 73.7,223.8 93.5,223.8 C111.9,223.8 128.1,216.7 128.1,196.6 C128.1,177.5 109,171.5 76.2,160.9 C44.4,150.7 12.3,134.4 12.3,89.2 C12.3,33.8 62.4,10.8 109,10.8 C137.2,10.8 169,21.4 190.9,41.5 L152.6,82.1 L152.6,82.1 Z" id="Shape"></path>
            <path d="M241.2,67.4 C222.5,67.4 208,52.9 208,35.6 C208,18.7 222.5,3.8 241.2,3.8 C259.6,3.8 274.4,17.9 274.4,35.6 C274.4,53.6 259.5,67.4 241.2,67.4 L241.2,67.4 Z M212.2,267.5 L212.2,91.7 L270.1,91.7 L270.1,267.5 L212.2,267.5 L212.2,267.5 Z" id="Shape"></path>
            <polygon id="Shape" points="303 267.7 303 0.8 361.6 0.8 361.6 267.7 303 267.7"></polygon>
            <path d="M423.2,67.4 C404.5,67.4 390,52.9 390,35.6 C390,18.7 404.5,3.8 423.2,3.8 C441.6,3.8 456.4,17.9 456.4,35.6 C456.4,53.6 441.6,67.4 423.2,67.4 L423.2,67.4 Z M394.3,267.5 L394.3,91.7 L452.2,91.7 L452.2,267.5 L394.3,267.5 L394.3,267.5 Z" id="Shape"></path>
            <path d="M605,148.4 C598.6,139.9 585.9,134.3 574.3,134.3 C549.9,134.3 533.7,155.1 533.7,179.5 C533.7,203.9 549.6,224.3 575,224.3 C586.7,224.3 599.4,219.7 606.4,211.2 L638.5,250.4 C624,264.5 599.3,273 573.5,273 C518.1,273 475,237.7 475,179.4 C475,122.2 518.4,85.8 573.1,85.8 C598.2,85.8 624.6,95.3 638.4,109.5 L605,148.4 L605,148.4 Z" id="Shape"></path>
            <path d="M735.4,273 C682.4,273 638,236.3 638,178.7 C638,121.1 682.5,85.8 735.4,85.8 C788.7,85.8 833.2,121.1 833.2,178.7 C833.2,236.3 788.7,273 735.4,273 L735.4,273 Z M735.4,133.9 C708.2,133.9 694.1,156.1 694.1,178.7 C694.1,201.3 708.6,224.2 735.8,224.2 C763,224.2 777.5,201.3 777.5,178.7 C777.5,156.1 762.6,133.9 735.4,133.9 L735.4,133.9 Z" id="Shape"></path>
            <path d="M971.5,267.5 L971.5,171.5 C971.5,152.1 966.2,134.4 945.4,134.4 C924.9,134.4 914.3,152.1 914.3,172.2 L914.3,267.5 L856,267.5 L856,91.7 L912.1,91.7 L912.1,116.1 L912.8,116.1 C920.9,100.6 941,86.8 965.4,86.8 C1012.7,86.8 1029.7,123.5 1029.7,158.8 L1029.7,267.5 L971.5,267.5 L971.5,267.5 Z" id="Shape"></path>
            <polygon id="Shape" points="185.6 562.8 125.2 562.8 30.6 312.8 98.4 312.8 156.3 490 157.7 490 215.2 312.8 281.9 312.8"></polygon>
            <path d="M254.4,411 C274.9,391.6 304.2,381.3 332.8,381.3 C391.8,381.3 413.6,410.2 413.6,474.2 L413.6,562.8 L360.6,562.8 L360.6,544.1 L359.5,544.1 C350.7,558.6 330.6,567 309.7,567 C281.8,567 245.8,553.2 245.8,511.9 C245.8,461.1 307.6,452.6 358.8,452.6 L358.8,449.8 C358.8,432.5 345,424.4 327,424.4 C310.4,424.4 294.2,432.5 283.6,442.4 L254.4,411 L254.4,411 Z M360.7,486.2 L353.3,486.2 C327.9,486.2 299.3,489.4 299.3,510.2 C299.3,523.6 312.7,528.2 324.4,528.2 C347.7,528.2 360.8,514.1 360.8,492.2 L360.8,486.2 L360.7,486.2 Z" id="Shape"></path>
            <polygon id="Shape" points="443.3 562.8 443.3 295.9 501.9 295.9 501.9 562.8 443.3 562.8"></polygon>
            <polygon id="Shape" points="534.4 562.8 534.4 295.9 593 295.9 593 562.8 534.4 562.8"></polygon>
            <path d="M798.8,490.8 L671.4,490.8 C673.2,510.2 692.6,524 713.4,524 C731.8,524 744.5,516.2 752.2,505.6 L792.4,531 C775.8,555 748.3,568.4 712.6,568.4 C659.6,568.4 615.9,534.9 615.9,475.5 C615.9,418 657.6,381.2 710.9,381.2 C762.8,381.2 799.2,416.9 799.2,476.9 C799.2,481.6 799.2,486.6 798.8,490.8 L798.8,490.8 Z M745.8,454.8 C745.8,436.4 734.1,421.3 711.2,421.3 C689,421.3 672.7,436.8 671.3,454.8 L745.8,454.8 L745.8,454.8 Z" id="Shape"></path>
            <path d="M920.3,589.3 C906.2,626 887.1,647.6 843,647.6 C832.1,647.6 819.7,645.8 811.2,643.7 L817.6,595 C823.2,596.8 830.7,598.2 836.3,598.2 C854.3,598.2 860.3,589.7 866,574.5 L871.6,560 L798.2,387 L862.5,387 L901.7,500 L902.8,500 L937.8,387 L999.2,387 L920.3,589.3 L920.3,589.3 Z" id="Shape"></path>
            <polygon id="Shape" points="266 726 297.2 726 297.2 758.2 266 758.2"></polygon>
            <path d="M310,696.4 L310,695.9 C310,660.7 337.3,631 374.4,631 C397.9,631 412.5,639.7 424,652.4 L406.4,671.4 C397.7,662.2 388.5,655.9 374.2,655.9 C353.5,655.9 338.5,673.8 338.5,695.4 L338.5,695.9 C338.5,718 353.8,735.8 375.6,735.8 C389,735.8 398.9,729.5 407.8,720.3 L425,737.2 C412.8,750.8 398.4,760.5 374.2,760.5 C337.3,760.6 310,731.7 310,696.4 L310,696.4 Z" id="Shape"></path>
            <path d="M430,696.4 L430,695.9 C430,660.4 458.2,631 496.3,631 C534.4,631 562.3,659.9 562.3,695.4 L562.3,695.9 C562.3,731.1 534.1,760.5 495.8,760.5 C457.9,760.6 430,731.7 430,696.4 L430,696.4 Z M533.8,696.4 L533.8,695.9 C533.8,674 518.1,656 495.7,656 C472.9,656 458.3,673.9 458.3,695.5 L458.3,696 C458.3,717.6 474,735.9 496.1,735.9 C519.3,735.9 533.8,717.8 533.8,696.4 L533.8,696.4 Z" id="Shape"></path>
            <path d="M577,634.6 L605.4,634.6 L605.4,653.4 C613.4,642.4 624.2,632 643.2,632 C661.1,632 673.5,640.7 680.1,653.9 C690.2,640.7 703.4,632 722.2,632 C749.2,632 765.7,649.2 765.7,679.5 L765.7,758.7 L737.2,758.7 L737.2,688.2 C737.2,668.5 728,657.9 712.1,657.9 C696.6,657.9 685.5,668.7 685.5,688.7 L685.5,758.7 L657.1,758.7 L657.1,688 C657.1,668.7 647.7,657.9 632,657.9 C616.3,657.9 605.4,669.6 605.4,688.9 L605.4,758.7 L577,758.7 L577,634.6 L577,634.6 Z" id="Shape"></path>
        </g>
    </g>
</svg>