<?xml version="1.0" encoding="utf-8"?>
<!-- Generator: Adobe Illustrator 19.1.0, SVG Export Plug-In . SVG Version: 6.00 Build 0)  -->
<!DOCTYPE svg PUBLIC "-//W3C//DTD SVG 1.1//EN" "http://www.w3.org/Graphics/SVG/1.1/DTD/svg11.dtd">
<svg version="1.1" id="Layer_1" xmlns="http://www.w3.org/2000/svg" xmlns:xlink="http://www.w3.org/1999/xlink" x="0px" y="0px"
	 viewBox="0 0 612 107.9" enable-background="new 0 0 612 107.9" xml:space="preserve">
<g>
	<path d="M2,68c0-12.4,10.2-19.1,34.1-22.1v-1c0-4.4-1.8-6.1-9.1-6.1c-5.9,0-8.5,1.9-10.1,4.8L2.5,38.7c3.1-6.5,12-12.4,25.7-12.4
		c16.6,0,22.9,5.8,22.9,18.2v40.4h-15v-6.1c-3.8,4.3-8,6.6-16.7,6.6C6.7,85.4,2,78.1,2,68 M36.1,63V57C23.1,59,17.4,61.4,17.4,67
		c0,4.3,2.5,6.5,7.2,6.5C33.8,73.5,36.1,68.8,36.1,63"/>
	<rect x="55.9" y="0" width="15.4" height="84.8"/>
	<rect x="76.8" y="0" width="15.4" height="84.8"/>
	<path d="M96,57.5v-3.2c0-17.6,9.1-28.1,26.6-28.1c17.2,0,24.7,9.3,24.7,25.9v8.5h-36.2c0.5,8.5,3,12.7,11.3,12.7
		c7.9,0,9.6-2.1,10.5-6.5l14.5,2.2c-1.9,7.8-8,16.3-24.7,16.3C103.3,85.4,96,74.9,96,57.5 M111.3,49.5h21.2
		c-0.3-6.9-2.3-10.5-10.1-10.5C114.5,39.1,111.9,42.7,111.3,49.5"/>
	<path d="M149.8,94.9h5c5.9,0,6.9-1.8,8.8-7.8l0.9-2.6l-19-57.4h16l3.4,10.6l7.9,26.4l8-26.5l3.2-10.5h15.3l-22.8,68.2
		c-2.8,8.5-8.3,12.5-19.7,12.5h-7.1V94.9z"/>
</g>
<path d="M206.5,8.8h8.3v7.7h-8.3V8.8z M206.7,26.9h7.8v58h-7.8V26.9z"/>
<path d="M221,26.9h7.8v6.8c3.3-4.3,9-7.8,18.5-7.8c13.3,0,17.4,7.4,17.4,20.1v38.8h-7.8V46.7c0-6.4-0.5-13.3-11.2-13.3
	c-12.6,0-16.9,6.8-16.9,20.5v30.9H221V26.9z"/>
<path d="M265.6,26.9h12.1V9.2h7.8v17.7h15.3v7.5h-15.3v30.9c0,9.6,1.2,12.2,11.2,12.2h4v7.4h-5.5c-13.9,0-17.5-5-17.5-18.6V34.4
	h-12.1V26.9z"/>
<path d="M301.3,57.5v-3.3c0-16.5,5.9-28.2,23.3-28.2c17.5,0,22.1,10.7,22.1,26v5.9h-37.6c0,11.5,3.9,20.2,15.5,20.2
	c9.2,0,12.7-3.5,14.1-9.8l7.8,1.9c-2.3,8.7-9.1,15.3-21.8,15.3C307.1,85.4,301.3,73.6,301.3,57.5 M309.1,50.6h29.7
	c-0.3-11.2-3.2-17.3-14.2-17.3C313.5,33.3,309.8,40.4,309.1,50.6"/>
<path d="M351.9,26.9h7.8v7.9c3.1-4.7,8.2-8.7,16.3-8.7v7.4c-12.9,0-16.3,9.5-16.3,23.2v28.2h-7.8V26.9z"/>
<path d="M376.2,67.7c0-14.9,13.4-21,35.7-23.2v-1.1c0-7.9-4.5-10-13.3-10c-5.9,0-10.8,1.9-13.4,6.4l-8.3-2.7
	c3.2-6.4,11.1-11.2,22.6-11.2c14.7,0,19.9,6,19.9,17v41.9h-7.6v-7.8c-3.5,5.4-8.4,8.3-17.8,8.3C379.4,85.4,376.2,76.4,376.2,67.7
	 M411.9,60.5v-9c-16.2,1.6-27.8,5.9-27.8,16.3c0,6.7,3.7,10.3,11.1,10.3C408.7,78.1,411.9,70.1,411.9,60.5"/>
<path d="M423.5,57.5v-3.3c0-16.5,6-28.2,23.4-28.2c12.7,0,20.1,6.3,22,19.7l-8.2,1.5c-1.1-8.3-4.4-13.7-13.9-13.7
	c-12.7,0-15.4,8.6-15.4,20.6v3.2C431.4,69,435,78,446.8,78c9.6,0,13.3-5.2,14.3-13l7.9,1.1c-2.9,13.1-10.4,19.3-22.5,19.3
	C429.7,85.4,423.5,74.3,423.5,57.5"/>
<path d="M467.7,26.9h12V9.2h7.8v17.7h24.9v7.5h-24.9v30.9c0,9.6,1.2,12.2,11.2,12.2h4v7.4h-5.5c-13.9,0-17.5-5-17.5-18.6V34.4h-12
	V26.9z"/>
<path d="M510.9,8.8h8.3v7.7h-8.3V8.8z M511.2,26.9h7.8v58h-7.8V26.9z"/>
<polygon points="549.3,85.4 541.3,85.4 521.9,26.9 529.9,26.9 535,42.3 545.4,74.5 556.2,42.3 561.2,26.9 569,26.9 "/>
<path d="M566.6,57.5v-3.3c0-16.5,5.9-28.2,23.3-28.2c17.5,0,22.1,10.7,22.1,26v5.9h-37.6c0,11.5,3.9,20.2,15.5,20.2
	c9.2,0,12.7-3.5,14.1-9.8l7.8,1.9c-2.3,8.7-9.1,15.3-21.8,15.3C572.4,85.4,566.6,73.6,566.6,57.5 M574.7,50.6h29.7
	c-0.3-11.2-3.2-17.3-14.2-17.3C579.2,33.3,575.4,40.4,574.7,50.6"/>
</svg>
